G04 #@! TF.FileFunction,Legend,Top*
%FSLAX46Y46*%
G04 Gerber Fmt 4.6, Leading zero omitted, Abs format (unit mm)*
G04 Created by KiCad (PCBNEW 4.0.7-e2-6376~60~ubuntu17.10.1) date Mon Dec 18 15:30:29 2017*
%MOMM*%
%LPD*%
G01*
G04 APERTURE LIST*
%ADD10C,0.100000*%
%ADD11C,0.120000*%
G04 APERTURE END LIST*
D10*
X87097619Y-119752381D02*
X87430952Y-120752381D01*
X87764286Y-119752381D01*
X88097619Y-120371429D02*
X88859524Y-120371429D01*
X88478572Y-120752381D02*
X88478572Y-119990476D01*
X147650000Y-105502381D02*
X147650000Y-104502381D01*
X147983334Y-105216667D01*
X148316667Y-104502381D01*
X148316667Y-105502381D01*
X148792857Y-105502381D02*
X148792857Y-104835714D01*
X148792857Y-104502381D02*
X148745238Y-104550000D01*
X148792857Y-104597619D01*
X148840476Y-104550000D01*
X148792857Y-104502381D01*
X148792857Y-104597619D01*
X149697619Y-105454762D02*
X149602381Y-105502381D01*
X149411904Y-105502381D01*
X149316666Y-105454762D01*
X149269047Y-105407143D01*
X149221428Y-105311905D01*
X149221428Y-105026190D01*
X149269047Y-104930952D01*
X149316666Y-104883333D01*
X149411904Y-104835714D01*
X149602381Y-104835714D01*
X149697619Y-104883333D01*
X148114286Y-107435714D02*
X148114286Y-108102381D01*
X147876190Y-107054762D02*
X147638095Y-107769048D01*
X148257143Y-107769048D01*
X148828571Y-107102381D02*
X148923810Y-107102381D01*
X149019048Y-107150000D01*
X149066667Y-107197619D01*
X149114286Y-107292857D01*
X149161905Y-107483333D01*
X149161905Y-107721429D01*
X149114286Y-107911905D01*
X149066667Y-108007143D01*
X149019048Y-108054762D01*
X148923810Y-108102381D01*
X148828571Y-108102381D01*
X148733333Y-108054762D01*
X148685714Y-108007143D01*
X148638095Y-107911905D01*
X148590476Y-107721429D01*
X148590476Y-107483333D01*
X148638095Y-107292857D01*
X148685714Y-107197619D01*
X148733333Y-107150000D01*
X148828571Y-107102381D01*
X147788095Y-112197619D02*
X147835714Y-112150000D01*
X147930952Y-112102381D01*
X148169048Y-112102381D01*
X148264286Y-112150000D01*
X148311905Y-112197619D01*
X148359524Y-112292857D01*
X148359524Y-112388095D01*
X148311905Y-112530952D01*
X147740476Y-113102381D01*
X148359524Y-113102381D01*
X148978571Y-112102381D02*
X149073810Y-112102381D01*
X149169048Y-112150000D01*
X149216667Y-112197619D01*
X149264286Y-112292857D01*
X149311905Y-112483333D01*
X149311905Y-112721429D01*
X149264286Y-112911905D01*
X149216667Y-113007143D01*
X149169048Y-113054762D01*
X149073810Y-113102381D01*
X148978571Y-113102381D01*
X148883333Y-113054762D01*
X148835714Y-113007143D01*
X148788095Y-112911905D01*
X148740476Y-112721429D01*
X148740476Y-112483333D01*
X148788095Y-112292857D01*
X148835714Y-112197619D01*
X148883333Y-112150000D01*
X148978571Y-112102381D01*
X87173810Y-117580952D02*
X88126191Y-117580952D01*
X87364286Y-117866667D02*
X87935715Y-117866667D01*
X87650001Y-117152381D02*
X87650001Y-117580952D01*
X87745239Y-118152381D02*
X87554763Y-118152381D01*
X148592858Y-128952381D02*
X148021429Y-128952381D01*
X148307143Y-128952381D02*
X148307143Y-127952381D01*
X148211905Y-128095238D01*
X148116667Y-128190476D01*
X148021429Y-128238095D01*
X149021429Y-128857143D02*
X149069048Y-128904762D01*
X149021429Y-128952381D01*
X148973810Y-128904762D01*
X149021429Y-128857143D01*
X149021429Y-128952381D01*
X149973810Y-127952381D02*
X149497619Y-127952381D01*
X149450000Y-128428571D01*
X149497619Y-128380952D01*
X149592857Y-128333333D01*
X149830953Y-128333333D01*
X149926191Y-128380952D01*
X149973810Y-128428571D01*
X150021429Y-128523810D01*
X150021429Y-128761905D01*
X149973810Y-128857143D01*
X149926191Y-128904762D01*
X149830953Y-128952381D01*
X149592857Y-128952381D01*
X149497619Y-128904762D01*
X149450000Y-128857143D01*
X150307143Y-127952381D02*
X150640476Y-128952381D01*
X150973810Y-127952381D01*
X147602381Y-120135714D02*
X148602381Y-119802381D01*
X147602381Y-119469047D01*
X148602381Y-118992857D02*
X148554762Y-119088095D01*
X148507143Y-119135714D01*
X148411905Y-119183333D01*
X148126190Y-119183333D01*
X148030952Y-119135714D01*
X147983333Y-119088095D01*
X147935714Y-118992857D01*
X147935714Y-118849999D01*
X147983333Y-118754761D01*
X148030952Y-118707142D01*
X148126190Y-118659523D01*
X148411905Y-118659523D01*
X148507143Y-118707142D01*
X148554762Y-118754761D01*
X148602381Y-118849999D01*
X148602381Y-118992857D01*
X147723810Y-121930952D02*
X148676191Y-121930952D01*
X147914286Y-122216667D02*
X148485715Y-122216667D01*
X148200001Y-121502381D02*
X148200001Y-121930952D01*
X148295239Y-122502381D02*
X148104763Y-122502381D01*
X147823810Y-110030952D02*
X148776191Y-110030952D01*
X148014286Y-110316667D02*
X148585715Y-110316667D01*
X148300001Y-109602381D02*
X148300001Y-110030952D01*
X148395239Y-110602381D02*
X148204763Y-110602381D01*
X148123810Y-130930952D02*
X149076191Y-130930952D01*
X148314286Y-131216667D02*
X148885715Y-131216667D01*
X148600001Y-130502381D02*
X148600001Y-130930952D01*
X148695239Y-131502381D02*
X148504763Y-131502381D01*
X148607143Y-135607143D02*
X148559524Y-135654762D01*
X148416667Y-135702381D01*
X148321429Y-135702381D01*
X148178571Y-135654762D01*
X148083333Y-135559524D01*
X148035714Y-135464286D01*
X147988095Y-135273810D01*
X147988095Y-135130952D01*
X148035714Y-134940476D01*
X148083333Y-134845238D01*
X148178571Y-134750000D01*
X148321429Y-134702381D01*
X148416667Y-134702381D01*
X148559524Y-134750000D01*
X148607143Y-134797619D01*
X149035714Y-135702381D02*
X149035714Y-134702381D01*
X149464286Y-135702381D02*
X149464286Y-135178571D01*
X149416667Y-135083333D01*
X149321429Y-135035714D01*
X149178571Y-135035714D01*
X149083333Y-135083333D01*
X149035714Y-135130952D01*
X87297619Y-114652381D02*
X87630952Y-115652381D01*
X87964286Y-114652381D01*
X88297619Y-115271429D02*
X89059524Y-115271429D01*
D11*
X123000000Y-127400000D02*
X123000000Y-123400000D01*
X119500000Y-127400000D02*
X123000000Y-127400000D01*
X119500000Y-123400000D02*
X123000000Y-123400000D01*
X119500000Y-127400000D02*
X119500000Y-123400000D01*
X107683264Y-142248437D02*
G75*
G03X107680000Y-132450643I-1383264J4898437D01*
G01*
X104916736Y-142248437D02*
G75*
G02X104920000Y-132450643I1383264J4898437D01*
G01*
X104916736Y-142248437D02*
G75*
G03X107680000Y-142249357I1383264J4898437D01*
G01*
X111350000Y-137350000D02*
X101250000Y-137350000D01*
X111350000Y-137390000D02*
X101250000Y-137390000D01*
X111350000Y-137430000D02*
X101250000Y-137430000D01*
X111349000Y-137470000D02*
X101251000Y-137470000D01*
X111348000Y-137510000D02*
X101252000Y-137510000D01*
X111347000Y-137550000D02*
X101253000Y-137550000D01*
X111345000Y-137590000D02*
X101255000Y-137590000D01*
X111343000Y-137630000D02*
X101257000Y-137630000D01*
X111340000Y-137670000D02*
X101260000Y-137670000D01*
X111338000Y-137710000D02*
X101262000Y-137710000D01*
X111335000Y-137750000D02*
X101265000Y-137750000D01*
X111331000Y-137790000D02*
X101269000Y-137790000D01*
X111328000Y-137830000D02*
X101272000Y-137830000D01*
X111324000Y-137870000D02*
X101276000Y-137870000D01*
X111320000Y-137910000D02*
X101280000Y-137910000D01*
X111315000Y-137950000D02*
X101285000Y-137950000D01*
X111310000Y-137990000D02*
X101290000Y-137990000D01*
X111305000Y-138030000D02*
X101295000Y-138030000D01*
X111299000Y-138071000D02*
X101301000Y-138071000D01*
X111293000Y-138111000D02*
X101307000Y-138111000D01*
X111287000Y-138151000D02*
X101313000Y-138151000D01*
X111281000Y-138191000D02*
X101319000Y-138191000D01*
X111274000Y-138231000D02*
X101326000Y-138231000D01*
X111267000Y-138271000D02*
X101333000Y-138271000D01*
X111259000Y-138311000D02*
X101341000Y-138311000D01*
X111251000Y-138351000D02*
X101349000Y-138351000D01*
X111243000Y-138391000D02*
X101357000Y-138391000D01*
X111235000Y-138431000D02*
X101365000Y-138431000D01*
X111226000Y-138471000D02*
X101374000Y-138471000D01*
X111217000Y-138511000D02*
X101383000Y-138511000D01*
X111207000Y-138551000D02*
X101393000Y-138551000D01*
X111197000Y-138591000D02*
X101403000Y-138591000D01*
X111187000Y-138631000D02*
X101413000Y-138631000D01*
X111176000Y-138671000D02*
X107481000Y-138671000D01*
X105119000Y-138671000D02*
X101424000Y-138671000D01*
X111165000Y-138711000D02*
X107481000Y-138711000D01*
X105119000Y-138711000D02*
X101435000Y-138711000D01*
X111154000Y-138751000D02*
X107481000Y-138751000D01*
X105119000Y-138751000D02*
X101446000Y-138751000D01*
X111143000Y-138791000D02*
X107481000Y-138791000D01*
X105119000Y-138791000D02*
X101457000Y-138791000D01*
X111131000Y-138831000D02*
X107481000Y-138831000D01*
X105119000Y-138831000D02*
X101469000Y-138831000D01*
X111118000Y-138871000D02*
X107481000Y-138871000D01*
X105119000Y-138871000D02*
X101482000Y-138871000D01*
X111106000Y-138911000D02*
X107481000Y-138911000D01*
X105119000Y-138911000D02*
X101494000Y-138911000D01*
X111092000Y-138951000D02*
X107481000Y-138951000D01*
X105119000Y-138951000D02*
X101508000Y-138951000D01*
X111079000Y-138991000D02*
X107481000Y-138991000D01*
X105119000Y-138991000D02*
X101521000Y-138991000D01*
X111065000Y-139031000D02*
X107481000Y-139031000D01*
X105119000Y-139031000D02*
X101535000Y-139031000D01*
X111051000Y-139071000D02*
X107481000Y-139071000D01*
X105119000Y-139071000D02*
X101549000Y-139071000D01*
X111037000Y-139111000D02*
X107481000Y-139111000D01*
X105119000Y-139111000D02*
X101563000Y-139111000D01*
X111022000Y-139151000D02*
X107481000Y-139151000D01*
X105119000Y-139151000D02*
X101578000Y-139151000D01*
X111006000Y-139191000D02*
X107481000Y-139191000D01*
X105119000Y-139191000D02*
X101594000Y-139191000D01*
X110991000Y-139231000D02*
X107481000Y-139231000D01*
X105119000Y-139231000D02*
X101609000Y-139231000D01*
X110974000Y-139271000D02*
X107481000Y-139271000D01*
X105119000Y-139271000D02*
X101626000Y-139271000D01*
X110958000Y-139311000D02*
X107481000Y-139311000D01*
X105119000Y-139311000D02*
X101642000Y-139311000D01*
X110941000Y-139351000D02*
X107481000Y-139351000D01*
X105119000Y-139351000D02*
X101659000Y-139351000D01*
X110924000Y-139391000D02*
X107481000Y-139391000D01*
X105119000Y-139391000D02*
X101676000Y-139391000D01*
X110906000Y-139431000D02*
X107481000Y-139431000D01*
X105119000Y-139431000D02*
X101694000Y-139431000D01*
X110888000Y-139471000D02*
X107481000Y-139471000D01*
X105119000Y-139471000D02*
X101712000Y-139471000D01*
X110869000Y-139511000D02*
X107481000Y-139511000D01*
X105119000Y-139511000D02*
X101731000Y-139511000D01*
X110850000Y-139551000D02*
X107481000Y-139551000D01*
X105119000Y-139551000D02*
X101750000Y-139551000D01*
X110831000Y-139591000D02*
X107481000Y-139591000D01*
X105119000Y-139591000D02*
X101769000Y-139591000D01*
X110811000Y-139631000D02*
X107481000Y-139631000D01*
X105119000Y-139631000D02*
X101789000Y-139631000D01*
X110791000Y-139671000D02*
X107481000Y-139671000D01*
X105119000Y-139671000D02*
X101809000Y-139671000D01*
X110770000Y-139711000D02*
X107481000Y-139711000D01*
X105119000Y-139711000D02*
X101830000Y-139711000D01*
X110749000Y-139751000D02*
X107481000Y-139751000D01*
X105119000Y-139751000D02*
X101851000Y-139751000D01*
X110728000Y-139791000D02*
X107481000Y-139791000D01*
X105119000Y-139791000D02*
X101872000Y-139791000D01*
X110705000Y-139831000D02*
X107481000Y-139831000D01*
X105119000Y-139831000D02*
X101895000Y-139831000D01*
X110683000Y-139871000D02*
X107481000Y-139871000D01*
X105119000Y-139871000D02*
X101917000Y-139871000D01*
X110660000Y-139911000D02*
X107481000Y-139911000D01*
X105119000Y-139911000D02*
X101940000Y-139911000D01*
X110636000Y-139951000D02*
X107481000Y-139951000D01*
X105119000Y-139951000D02*
X101964000Y-139951000D01*
X110612000Y-139991000D02*
X107481000Y-139991000D01*
X105119000Y-139991000D02*
X101988000Y-139991000D01*
X110588000Y-140031000D02*
X107481000Y-140031000D01*
X105119000Y-140031000D02*
X102012000Y-140031000D01*
X110563000Y-140071000D02*
X107481000Y-140071000D01*
X105119000Y-140071000D02*
X102037000Y-140071000D01*
X110537000Y-140111000D02*
X107481000Y-140111000D01*
X105119000Y-140111000D02*
X102063000Y-140111000D01*
X110511000Y-140151000D02*
X107481000Y-140151000D01*
X105119000Y-140151000D02*
X102089000Y-140151000D01*
X110485000Y-140191000D02*
X107481000Y-140191000D01*
X105119000Y-140191000D02*
X102115000Y-140191000D01*
X110457000Y-140231000D02*
X107481000Y-140231000D01*
X105119000Y-140231000D02*
X102143000Y-140231000D01*
X110430000Y-140271000D02*
X107481000Y-140271000D01*
X105119000Y-140271000D02*
X102170000Y-140271000D01*
X110401000Y-140311000D02*
X107481000Y-140311000D01*
X105119000Y-140311000D02*
X102199000Y-140311000D01*
X110372000Y-140351000D02*
X107481000Y-140351000D01*
X105119000Y-140351000D02*
X102228000Y-140351000D01*
X110343000Y-140391000D02*
X107481000Y-140391000D01*
X105119000Y-140391000D02*
X102257000Y-140391000D01*
X110313000Y-140431000D02*
X107481000Y-140431000D01*
X105119000Y-140431000D02*
X102287000Y-140431000D01*
X110282000Y-140471000D02*
X107481000Y-140471000D01*
X105119000Y-140471000D02*
X102318000Y-140471000D01*
X110251000Y-140511000D02*
X107481000Y-140511000D01*
X105119000Y-140511000D02*
X102349000Y-140511000D01*
X110219000Y-140551000D02*
X107481000Y-140551000D01*
X105119000Y-140551000D02*
X102381000Y-140551000D01*
X110186000Y-140591000D02*
X107481000Y-140591000D01*
X105119000Y-140591000D02*
X102414000Y-140591000D01*
X110153000Y-140631000D02*
X107481000Y-140631000D01*
X105119000Y-140631000D02*
X102447000Y-140631000D01*
X110119000Y-140671000D02*
X107481000Y-140671000D01*
X105119000Y-140671000D02*
X102481000Y-140671000D01*
X110084000Y-140711000D02*
X107481000Y-140711000D01*
X105119000Y-140711000D02*
X102516000Y-140711000D01*
X110048000Y-140751000D02*
X107481000Y-140751000D01*
X105119000Y-140751000D02*
X102552000Y-140751000D01*
X110012000Y-140791000D02*
X107481000Y-140791000D01*
X105119000Y-140791000D02*
X102588000Y-140791000D01*
X109975000Y-140831000D02*
X107481000Y-140831000D01*
X105119000Y-140831000D02*
X102625000Y-140831000D01*
X109937000Y-140871000D02*
X107481000Y-140871000D01*
X105119000Y-140871000D02*
X102663000Y-140871000D01*
X109898000Y-140911000D02*
X107481000Y-140911000D01*
X105119000Y-140911000D02*
X102702000Y-140911000D01*
X109859000Y-140951000D02*
X107481000Y-140951000D01*
X105119000Y-140951000D02*
X102741000Y-140951000D01*
X109818000Y-140991000D02*
X107481000Y-140991000D01*
X105119000Y-140991000D02*
X102782000Y-140991000D01*
X109777000Y-141031000D02*
X102823000Y-141031000D01*
X109735000Y-141071000D02*
X102865000Y-141071000D01*
X109691000Y-141111000D02*
X102909000Y-141111000D01*
X109647000Y-141151000D02*
X102953000Y-141151000D01*
X109602000Y-141191000D02*
X102998000Y-141191000D01*
X109555000Y-141231000D02*
X103045000Y-141231000D01*
X109507000Y-141271000D02*
X103093000Y-141271000D01*
X109458000Y-141311000D02*
X103142000Y-141311000D01*
X109408000Y-141351000D02*
X103192000Y-141351000D01*
X109357000Y-141391000D02*
X103243000Y-141391000D01*
X109304000Y-141431000D02*
X103296000Y-141431000D01*
X109249000Y-141471000D02*
X103351000Y-141471000D01*
X109194000Y-141511000D02*
X103406000Y-141511000D01*
X109136000Y-141551000D02*
X103464000Y-141551000D01*
X109077000Y-141591000D02*
X103523000Y-141591000D01*
X109015000Y-141631000D02*
X103585000Y-141631000D01*
X108952000Y-141671000D02*
X103648000Y-141671000D01*
X108887000Y-141711000D02*
X103713000Y-141711000D01*
X108819000Y-141751000D02*
X103781000Y-141751000D01*
X108749000Y-141791000D02*
X103851000Y-141791000D01*
X108677000Y-141831000D02*
X103923000Y-141831000D01*
X108601000Y-141871000D02*
X103999000Y-141871000D01*
X108522000Y-141911000D02*
X104078000Y-141911000D01*
X108440000Y-141951000D02*
X104160000Y-141951000D01*
X108353000Y-141991000D02*
X104247000Y-141991000D01*
X108262000Y-142031000D02*
X104338000Y-142031000D01*
X108166000Y-142071000D02*
X104434000Y-142071000D01*
X108063000Y-142111000D02*
X104537000Y-142111000D01*
X107954000Y-142151000D02*
X104646000Y-142151000D01*
X107836000Y-142191000D02*
X104764000Y-142191000D01*
X107707000Y-142231000D02*
X104893000Y-142231000D01*
X107565000Y-142271000D02*
X105035000Y-142271000D01*
X107404000Y-142311000D02*
X105196000Y-142311000D01*
X107213000Y-142351000D02*
X105387000Y-142351000D01*
X106972000Y-142391000D02*
X105628000Y-142391000D01*
X106579000Y-142431000D02*
X106021000Y-142431000D01*
X106300000Y-132150000D02*
X106300000Y-133650000D01*
X107050000Y-132900000D02*
X105550000Y-132900000D01*
X131083264Y-142248437D02*
G75*
G03X131080000Y-132450643I-1383264J4898437D01*
G01*
X128316736Y-142248437D02*
G75*
G02X128320000Y-132450643I1383264J4898437D01*
G01*
X128316736Y-142248437D02*
G75*
G03X131080000Y-142249357I1383264J4898437D01*
G01*
X134750000Y-137350000D02*
X124650000Y-137350000D01*
X134750000Y-137390000D02*
X124650000Y-137390000D01*
X134750000Y-137430000D02*
X124650000Y-137430000D01*
X134749000Y-137470000D02*
X124651000Y-137470000D01*
X134748000Y-137510000D02*
X124652000Y-137510000D01*
X134747000Y-137550000D02*
X124653000Y-137550000D01*
X134745000Y-137590000D02*
X124655000Y-137590000D01*
X134743000Y-137630000D02*
X124657000Y-137630000D01*
X134740000Y-137670000D02*
X124660000Y-137670000D01*
X134738000Y-137710000D02*
X124662000Y-137710000D01*
X134735000Y-137750000D02*
X124665000Y-137750000D01*
X134731000Y-137790000D02*
X124669000Y-137790000D01*
X134728000Y-137830000D02*
X124672000Y-137830000D01*
X134724000Y-137870000D02*
X124676000Y-137870000D01*
X134720000Y-137910000D02*
X124680000Y-137910000D01*
X134715000Y-137950000D02*
X124685000Y-137950000D01*
X134710000Y-137990000D02*
X124690000Y-137990000D01*
X134705000Y-138030000D02*
X124695000Y-138030000D01*
X134699000Y-138071000D02*
X124701000Y-138071000D01*
X134693000Y-138111000D02*
X124707000Y-138111000D01*
X134687000Y-138151000D02*
X124713000Y-138151000D01*
X134681000Y-138191000D02*
X124719000Y-138191000D01*
X134674000Y-138231000D02*
X124726000Y-138231000D01*
X134667000Y-138271000D02*
X124733000Y-138271000D01*
X134659000Y-138311000D02*
X124741000Y-138311000D01*
X134651000Y-138351000D02*
X124749000Y-138351000D01*
X134643000Y-138391000D02*
X124757000Y-138391000D01*
X134635000Y-138431000D02*
X124765000Y-138431000D01*
X134626000Y-138471000D02*
X124774000Y-138471000D01*
X134617000Y-138511000D02*
X124783000Y-138511000D01*
X134607000Y-138551000D02*
X124793000Y-138551000D01*
X134597000Y-138591000D02*
X124803000Y-138591000D01*
X134587000Y-138631000D02*
X124813000Y-138631000D01*
X134576000Y-138671000D02*
X130881000Y-138671000D01*
X128519000Y-138671000D02*
X124824000Y-138671000D01*
X134565000Y-138711000D02*
X130881000Y-138711000D01*
X128519000Y-138711000D02*
X124835000Y-138711000D01*
X134554000Y-138751000D02*
X130881000Y-138751000D01*
X128519000Y-138751000D02*
X124846000Y-138751000D01*
X134543000Y-138791000D02*
X130881000Y-138791000D01*
X128519000Y-138791000D02*
X124857000Y-138791000D01*
X134531000Y-138831000D02*
X130881000Y-138831000D01*
X128519000Y-138831000D02*
X124869000Y-138831000D01*
X134518000Y-138871000D02*
X130881000Y-138871000D01*
X128519000Y-138871000D02*
X124882000Y-138871000D01*
X134506000Y-138911000D02*
X130881000Y-138911000D01*
X128519000Y-138911000D02*
X124894000Y-138911000D01*
X134492000Y-138951000D02*
X130881000Y-138951000D01*
X128519000Y-138951000D02*
X124908000Y-138951000D01*
X134479000Y-138991000D02*
X130881000Y-138991000D01*
X128519000Y-138991000D02*
X124921000Y-138991000D01*
X134465000Y-139031000D02*
X130881000Y-139031000D01*
X128519000Y-139031000D02*
X124935000Y-139031000D01*
X134451000Y-139071000D02*
X130881000Y-139071000D01*
X128519000Y-139071000D02*
X124949000Y-139071000D01*
X134437000Y-139111000D02*
X130881000Y-139111000D01*
X128519000Y-139111000D02*
X124963000Y-139111000D01*
X134422000Y-139151000D02*
X130881000Y-139151000D01*
X128519000Y-139151000D02*
X124978000Y-139151000D01*
X134406000Y-139191000D02*
X130881000Y-139191000D01*
X128519000Y-139191000D02*
X124994000Y-139191000D01*
X134391000Y-139231000D02*
X130881000Y-139231000D01*
X128519000Y-139231000D02*
X125009000Y-139231000D01*
X134374000Y-139271000D02*
X130881000Y-139271000D01*
X128519000Y-139271000D02*
X125026000Y-139271000D01*
X134358000Y-139311000D02*
X130881000Y-139311000D01*
X128519000Y-139311000D02*
X125042000Y-139311000D01*
X134341000Y-139351000D02*
X130881000Y-139351000D01*
X128519000Y-139351000D02*
X125059000Y-139351000D01*
X134324000Y-139391000D02*
X130881000Y-139391000D01*
X128519000Y-139391000D02*
X125076000Y-139391000D01*
X134306000Y-139431000D02*
X130881000Y-139431000D01*
X128519000Y-139431000D02*
X125094000Y-139431000D01*
X134288000Y-139471000D02*
X130881000Y-139471000D01*
X128519000Y-139471000D02*
X125112000Y-139471000D01*
X134269000Y-139511000D02*
X130881000Y-139511000D01*
X128519000Y-139511000D02*
X125131000Y-139511000D01*
X134250000Y-139551000D02*
X130881000Y-139551000D01*
X128519000Y-139551000D02*
X125150000Y-139551000D01*
X134231000Y-139591000D02*
X130881000Y-139591000D01*
X128519000Y-139591000D02*
X125169000Y-139591000D01*
X134211000Y-139631000D02*
X130881000Y-139631000D01*
X128519000Y-139631000D02*
X125189000Y-139631000D01*
X134191000Y-139671000D02*
X130881000Y-139671000D01*
X128519000Y-139671000D02*
X125209000Y-139671000D01*
X134170000Y-139711000D02*
X130881000Y-139711000D01*
X128519000Y-139711000D02*
X125230000Y-139711000D01*
X134149000Y-139751000D02*
X130881000Y-139751000D01*
X128519000Y-139751000D02*
X125251000Y-139751000D01*
X134128000Y-139791000D02*
X130881000Y-139791000D01*
X128519000Y-139791000D02*
X125272000Y-139791000D01*
X134105000Y-139831000D02*
X130881000Y-139831000D01*
X128519000Y-139831000D02*
X125295000Y-139831000D01*
X134083000Y-139871000D02*
X130881000Y-139871000D01*
X128519000Y-139871000D02*
X125317000Y-139871000D01*
X134060000Y-139911000D02*
X130881000Y-139911000D01*
X128519000Y-139911000D02*
X125340000Y-139911000D01*
X134036000Y-139951000D02*
X130881000Y-139951000D01*
X128519000Y-139951000D02*
X125364000Y-139951000D01*
X134012000Y-139991000D02*
X130881000Y-139991000D01*
X128519000Y-139991000D02*
X125388000Y-139991000D01*
X133988000Y-140031000D02*
X130881000Y-140031000D01*
X128519000Y-140031000D02*
X125412000Y-140031000D01*
X133963000Y-140071000D02*
X130881000Y-140071000D01*
X128519000Y-140071000D02*
X125437000Y-140071000D01*
X133937000Y-140111000D02*
X130881000Y-140111000D01*
X128519000Y-140111000D02*
X125463000Y-140111000D01*
X133911000Y-140151000D02*
X130881000Y-140151000D01*
X128519000Y-140151000D02*
X125489000Y-140151000D01*
X133885000Y-140191000D02*
X130881000Y-140191000D01*
X128519000Y-140191000D02*
X125515000Y-140191000D01*
X133857000Y-140231000D02*
X130881000Y-140231000D01*
X128519000Y-140231000D02*
X125543000Y-140231000D01*
X133830000Y-140271000D02*
X130881000Y-140271000D01*
X128519000Y-140271000D02*
X125570000Y-140271000D01*
X133801000Y-140311000D02*
X130881000Y-140311000D01*
X128519000Y-140311000D02*
X125599000Y-140311000D01*
X133772000Y-140351000D02*
X130881000Y-140351000D01*
X128519000Y-140351000D02*
X125628000Y-140351000D01*
X133743000Y-140391000D02*
X130881000Y-140391000D01*
X128519000Y-140391000D02*
X125657000Y-140391000D01*
X133713000Y-140431000D02*
X130881000Y-140431000D01*
X128519000Y-140431000D02*
X125687000Y-140431000D01*
X133682000Y-140471000D02*
X130881000Y-140471000D01*
X128519000Y-140471000D02*
X125718000Y-140471000D01*
X133651000Y-140511000D02*
X130881000Y-140511000D01*
X128519000Y-140511000D02*
X125749000Y-140511000D01*
X133619000Y-140551000D02*
X130881000Y-140551000D01*
X128519000Y-140551000D02*
X125781000Y-140551000D01*
X133586000Y-140591000D02*
X130881000Y-140591000D01*
X128519000Y-140591000D02*
X125814000Y-140591000D01*
X133553000Y-140631000D02*
X130881000Y-140631000D01*
X128519000Y-140631000D02*
X125847000Y-140631000D01*
X133519000Y-140671000D02*
X130881000Y-140671000D01*
X128519000Y-140671000D02*
X125881000Y-140671000D01*
X133484000Y-140711000D02*
X130881000Y-140711000D01*
X128519000Y-140711000D02*
X125916000Y-140711000D01*
X133448000Y-140751000D02*
X130881000Y-140751000D01*
X128519000Y-140751000D02*
X125952000Y-140751000D01*
X133412000Y-140791000D02*
X130881000Y-140791000D01*
X128519000Y-140791000D02*
X125988000Y-140791000D01*
X133375000Y-140831000D02*
X130881000Y-140831000D01*
X128519000Y-140831000D02*
X126025000Y-140831000D01*
X133337000Y-140871000D02*
X130881000Y-140871000D01*
X128519000Y-140871000D02*
X126063000Y-140871000D01*
X133298000Y-140911000D02*
X130881000Y-140911000D01*
X128519000Y-140911000D02*
X126102000Y-140911000D01*
X133259000Y-140951000D02*
X130881000Y-140951000D01*
X128519000Y-140951000D02*
X126141000Y-140951000D01*
X133218000Y-140991000D02*
X130881000Y-140991000D01*
X128519000Y-140991000D02*
X126182000Y-140991000D01*
X133177000Y-141031000D02*
X126223000Y-141031000D01*
X133135000Y-141071000D02*
X126265000Y-141071000D01*
X133091000Y-141111000D02*
X126309000Y-141111000D01*
X133047000Y-141151000D02*
X126353000Y-141151000D01*
X133002000Y-141191000D02*
X126398000Y-141191000D01*
X132955000Y-141231000D02*
X126445000Y-141231000D01*
X132907000Y-141271000D02*
X126493000Y-141271000D01*
X132858000Y-141311000D02*
X126542000Y-141311000D01*
X132808000Y-141351000D02*
X126592000Y-141351000D01*
X132757000Y-141391000D02*
X126643000Y-141391000D01*
X132704000Y-141431000D02*
X126696000Y-141431000D01*
X132649000Y-141471000D02*
X126751000Y-141471000D01*
X132594000Y-141511000D02*
X126806000Y-141511000D01*
X132536000Y-141551000D02*
X126864000Y-141551000D01*
X132477000Y-141591000D02*
X126923000Y-141591000D01*
X132415000Y-141631000D02*
X126985000Y-141631000D01*
X132352000Y-141671000D02*
X127048000Y-141671000D01*
X132287000Y-141711000D02*
X127113000Y-141711000D01*
X132219000Y-141751000D02*
X127181000Y-141751000D01*
X132149000Y-141791000D02*
X127251000Y-141791000D01*
X132077000Y-141831000D02*
X127323000Y-141831000D01*
X132001000Y-141871000D02*
X127399000Y-141871000D01*
X131922000Y-141911000D02*
X127478000Y-141911000D01*
X131840000Y-141951000D02*
X127560000Y-141951000D01*
X131753000Y-141991000D02*
X127647000Y-141991000D01*
X131662000Y-142031000D02*
X127738000Y-142031000D01*
X131566000Y-142071000D02*
X127834000Y-142071000D01*
X131463000Y-142111000D02*
X127937000Y-142111000D01*
X131354000Y-142151000D02*
X128046000Y-142151000D01*
X131236000Y-142191000D02*
X128164000Y-142191000D01*
X131107000Y-142231000D02*
X128293000Y-142231000D01*
X130965000Y-142271000D02*
X128435000Y-142271000D01*
X130804000Y-142311000D02*
X128596000Y-142311000D01*
X130613000Y-142351000D02*
X128787000Y-142351000D01*
X130372000Y-142391000D02*
X129028000Y-142391000D01*
X129979000Y-142431000D02*
X129421000Y-142431000D01*
X129700000Y-132150000D02*
X129700000Y-133650000D01*
X130450000Y-132900000D02*
X128950000Y-132900000D01*
X114660000Y-112560000D02*
X107340000Y-112560000D01*
X114660000Y-107940000D02*
X107340000Y-107940000D01*
X114660000Y-112560000D02*
X114660000Y-107940000D01*
X107340000Y-112560000D02*
X107340000Y-107940000D01*
X144470000Y-108770000D02*
X144470000Y-113910000D01*
X144470000Y-113910000D02*
X147130000Y-113910000D01*
X147130000Y-113910000D02*
X147130000Y-108770000D01*
X147130000Y-108770000D02*
X144470000Y-108770000D01*
X144470000Y-107500000D02*
X144470000Y-106170000D01*
X144470000Y-106170000D02*
X145800000Y-106170000D01*
X111560000Y-112850000D02*
G75*
G02X109560000Y-112850000I-1000000J0D01*
G01*
X109560000Y-112850000D02*
X108310000Y-112850000D01*
X108310000Y-112850000D02*
X108310000Y-123130000D01*
X108310000Y-123130000D02*
X112810000Y-123130000D01*
X112810000Y-123130000D02*
X112810000Y-112850000D01*
X112810000Y-112850000D02*
X111560000Y-112850000D01*
X126060000Y-112850000D02*
G75*
G02X124060000Y-112850000I-1000000J0D01*
G01*
X124060000Y-112850000D02*
X122810000Y-112850000D01*
X122810000Y-112850000D02*
X122810000Y-123130000D01*
X122810000Y-123130000D02*
X127310000Y-123130000D01*
X127310000Y-123130000D02*
X127310000Y-112850000D01*
X127310000Y-112850000D02*
X126060000Y-112850000D01*
X147080000Y-120620000D02*
X147080000Y-118020000D01*
X147080000Y-118020000D02*
X144420000Y-118020000D01*
X144420000Y-118020000D02*
X144420000Y-120620000D01*
X144420000Y-120620000D02*
X147080000Y-120620000D01*
X147080000Y-121890000D02*
X147080000Y-123220000D01*
X147080000Y-123220000D02*
X145750000Y-123220000D01*
X147130000Y-129770000D02*
X147130000Y-127170000D01*
X147130000Y-127170000D02*
X144470000Y-127170000D01*
X144470000Y-127170000D02*
X144470000Y-129770000D01*
X144470000Y-129770000D02*
X147130000Y-129770000D01*
X147130000Y-131040000D02*
X147130000Y-132370000D01*
X147130000Y-132370000D02*
X145800000Y-132370000D01*
X147130000Y-103580000D02*
X147130000Y-103520000D01*
X147130000Y-103520000D02*
X144470000Y-103520000D01*
X144470000Y-103520000D02*
X144470000Y-103580000D01*
X144470000Y-103580000D02*
X147130000Y-103580000D01*
X147130000Y-104850000D02*
X147130000Y-106180000D01*
X147130000Y-106180000D02*
X145800000Y-106180000D01*
X116570000Y-110570000D02*
X116240000Y-110570000D01*
X116240000Y-110570000D02*
X116240000Y-104150000D01*
X116240000Y-104150000D02*
X116570000Y-104150000D01*
X118530000Y-110570000D02*
X118860000Y-110570000D01*
X118860000Y-110570000D02*
X118860000Y-104150000D01*
X118860000Y-104150000D02*
X118530000Y-104150000D01*
X132330000Y-118370000D02*
X132330000Y-118040000D01*
X132330000Y-118040000D02*
X138750000Y-118040000D01*
X138750000Y-118040000D02*
X138750000Y-118370000D01*
X132330000Y-120330000D02*
X132330000Y-120660000D01*
X132330000Y-120660000D02*
X138750000Y-120660000D01*
X138750000Y-120660000D02*
X138750000Y-120330000D01*
X140850000Y-108430000D02*
X140850000Y-108760000D01*
X140850000Y-108760000D02*
X134430000Y-108760000D01*
X134430000Y-108760000D02*
X134430000Y-108430000D01*
X140850000Y-106470000D02*
X140850000Y-106140000D01*
X140850000Y-106140000D02*
X134430000Y-106140000D01*
X134430000Y-106140000D02*
X134430000Y-106470000D01*
X140850000Y-111430000D02*
X140850000Y-111760000D01*
X140850000Y-111760000D02*
X134430000Y-111760000D01*
X134430000Y-111760000D02*
X134430000Y-111430000D01*
X140850000Y-109470000D02*
X140850000Y-109140000D01*
X140850000Y-109140000D02*
X134430000Y-109140000D01*
X134430000Y-109140000D02*
X134430000Y-109470000D01*
X122800000Y-137080000D02*
X122800000Y-137410000D01*
X122800000Y-137410000D02*
X116380000Y-137410000D01*
X116380000Y-137410000D02*
X116380000Y-137080000D01*
X122800000Y-135120000D02*
X122800000Y-134790000D01*
X122800000Y-134790000D02*
X116380000Y-134790000D01*
X116380000Y-134790000D02*
X116380000Y-135120000D01*
X122750000Y-131430000D02*
X122750000Y-131760000D01*
X122750000Y-131760000D02*
X116330000Y-131760000D01*
X116330000Y-131760000D02*
X116330000Y-131430000D01*
X122750000Y-129470000D02*
X122750000Y-129140000D01*
X122750000Y-129140000D02*
X116330000Y-129140000D01*
X116330000Y-129140000D02*
X116330000Y-129470000D01*
X116350000Y-132320000D02*
X116350000Y-131990000D01*
X116350000Y-131990000D02*
X122770000Y-131990000D01*
X122770000Y-131990000D02*
X122770000Y-132320000D01*
X116350000Y-134280000D02*
X116350000Y-134610000D01*
X116350000Y-134610000D02*
X122770000Y-134610000D01*
X122770000Y-134610000D02*
X122770000Y-134280000D01*
X107530000Y-105270000D02*
X107530000Y-104940000D01*
X107530000Y-104940000D02*
X113950000Y-104940000D01*
X113950000Y-104940000D02*
X113950000Y-105270000D01*
X107530000Y-107230000D02*
X107530000Y-107560000D01*
X107530000Y-107560000D02*
X113950000Y-107560000D01*
X113950000Y-107560000D02*
X113950000Y-107230000D01*
X122800000Y-138000000D02*
X119200000Y-138000000D01*
X123324184Y-138727205D02*
G75*
G03X122800000Y-138000000I-2324184J-1122795D01*
G01*
X123356400Y-140948807D02*
G75*
G02X121000000Y-142450000I-2356400J1098807D01*
G01*
X118643600Y-140948807D02*
G75*
G03X121000000Y-142450000I2356400J1098807D01*
G01*
X118675816Y-138727205D02*
G75*
G02X119200000Y-138000000I2324184J-1122795D01*
G01*
X119090000Y-99240000D02*
X126410000Y-99240000D01*
X119090000Y-107860000D02*
X126410000Y-107860000D01*
X119090000Y-99240000D02*
X119090000Y-107860000D01*
X126410000Y-99240000D02*
X126410000Y-107860000D01*
X116500000Y-139300000D02*
X112500000Y-139300000D01*
X116500000Y-142800000D02*
X116500000Y-139300000D01*
X112500000Y-142800000D02*
X112500000Y-139300000D01*
X116500000Y-142800000D02*
X112500000Y-142800000D01*
X94800000Y-122300000D02*
X100300000Y-122300000D01*
X94800000Y-118300000D02*
X94800000Y-122300000D01*
X100300000Y-118300000D02*
X100300000Y-122300000D01*
X94800000Y-118300000D02*
X100300000Y-118300000D01*
X94800000Y-117200000D02*
X100300000Y-117200000D01*
X94800000Y-113200000D02*
X94800000Y-117200000D01*
X100300000Y-113200000D02*
X100300000Y-117200000D01*
X94800000Y-113200000D02*
X100300000Y-113200000D01*
X130500000Y-113550000D02*
X130500000Y-117550000D01*
X134000000Y-113550000D02*
X130500000Y-113550000D01*
X134000000Y-117550000D02*
X130500000Y-117550000D01*
X134000000Y-113550000D02*
X134000000Y-117550000D01*
X115800000Y-113550000D02*
X115800000Y-117550000D01*
X119300000Y-113550000D02*
X115800000Y-113550000D01*
X119300000Y-117550000D02*
X115800000Y-117550000D01*
X119300000Y-113550000D02*
X119300000Y-117550000D01*
X108500000Y-127350000D02*
X108500000Y-123350000D01*
X105000000Y-127350000D02*
X108500000Y-127350000D01*
X105000000Y-123350000D02*
X108500000Y-123350000D01*
X105000000Y-127350000D02*
X105000000Y-123350000D01*
X89720000Y-116470000D02*
X89720000Y-121610000D01*
X89720000Y-121610000D02*
X92380000Y-121610000D01*
X92380000Y-121610000D02*
X92380000Y-116470000D01*
X92380000Y-116470000D02*
X89720000Y-116470000D01*
X89720000Y-115200000D02*
X89720000Y-113870000D01*
X89720000Y-113870000D02*
X91050000Y-113870000D01*
X144420000Y-135430000D02*
X144420000Y-138030000D01*
X144420000Y-138030000D02*
X147080000Y-138030000D01*
X147080000Y-138030000D02*
X147080000Y-135430000D01*
X147080000Y-135430000D02*
X144420000Y-135430000D01*
X144420000Y-134160000D02*
X144420000Y-132830000D01*
X144420000Y-132830000D02*
X145750000Y-132830000D01*
D10*
X119017857Y-124982143D02*
X119053571Y-125017857D01*
X119089286Y-125125000D01*
X119089286Y-125196429D01*
X119053571Y-125303572D01*
X118982143Y-125375000D01*
X118910714Y-125410715D01*
X118767857Y-125446429D01*
X118660714Y-125446429D01*
X118517857Y-125410715D01*
X118446429Y-125375000D01*
X118375000Y-125303572D01*
X118339286Y-125196429D01*
X118339286Y-125125000D01*
X118375000Y-125017857D01*
X118410714Y-124982143D01*
X119089286Y-124267857D02*
X119089286Y-124696429D01*
X119089286Y-124482143D02*
X118339286Y-124482143D01*
X118446429Y-124553572D01*
X118517857Y-124625000D01*
X118553571Y-124696429D01*
X118339286Y-124017857D02*
X118339286Y-123553571D01*
X118625000Y-123803571D01*
X118625000Y-123696429D01*
X118660714Y-123625000D01*
X118696429Y-123589286D01*
X118767857Y-123553571D01*
X118946429Y-123553571D01*
X119017857Y-123589286D01*
X119053571Y-123625000D01*
X119089286Y-123696429D01*
X119089286Y-123910714D01*
X119053571Y-123982143D01*
X119017857Y-124017857D01*
X120817858Y-127739286D02*
X120889286Y-127739286D01*
X120960715Y-127775000D01*
X120996429Y-127810714D01*
X121032143Y-127882143D01*
X121067858Y-128025000D01*
X121067858Y-128203571D01*
X121032143Y-128346429D01*
X120996429Y-128417857D01*
X120960715Y-128453571D01*
X120889286Y-128489286D01*
X120817858Y-128489286D01*
X120746429Y-128453571D01*
X120710715Y-128417857D01*
X120675000Y-128346429D01*
X120639286Y-128203571D01*
X120639286Y-128025000D01*
X120675000Y-127882143D01*
X120710715Y-127810714D01*
X120746429Y-127775000D01*
X120817858Y-127739286D01*
X121389286Y-128417857D02*
X121425001Y-128453571D01*
X121389286Y-128489286D01*
X121353572Y-128453571D01*
X121389286Y-128417857D01*
X121389286Y-128489286D01*
X122139287Y-128489286D02*
X121710715Y-128489286D01*
X121925001Y-128489286D02*
X121925001Y-127739286D01*
X121853572Y-127846429D01*
X121782144Y-127917857D01*
X121710715Y-127953571D01*
X122782144Y-127989286D02*
X122782144Y-128489286D01*
X122460715Y-127989286D02*
X122460715Y-128382143D01*
X122496430Y-128453571D01*
X122567858Y-128489286D01*
X122675001Y-128489286D01*
X122746430Y-128453571D01*
X122782144Y-128417857D01*
X123389286Y-128096429D02*
X123139286Y-128096429D01*
X123139286Y-128489286D02*
X123139286Y-127739286D01*
X123496429Y-127739286D01*
X106875000Y-131567857D02*
X106839286Y-131603571D01*
X106732143Y-131639286D01*
X106660714Y-131639286D01*
X106553571Y-131603571D01*
X106482143Y-131532143D01*
X106446428Y-131460714D01*
X106410714Y-131317857D01*
X106410714Y-131210714D01*
X106446428Y-131067857D01*
X106482143Y-130996429D01*
X106553571Y-130925000D01*
X106660714Y-130889286D01*
X106732143Y-130889286D01*
X106839286Y-130925000D01*
X106875000Y-130960714D01*
X107517857Y-130889286D02*
X107375000Y-130889286D01*
X107303571Y-130925000D01*
X107267857Y-130960714D01*
X107196428Y-131067857D01*
X107160714Y-131210714D01*
X107160714Y-131496429D01*
X107196428Y-131567857D01*
X107232143Y-131603571D01*
X107303571Y-131639286D01*
X107446428Y-131639286D01*
X107517857Y-131603571D01*
X107553571Y-131567857D01*
X107589286Y-131496429D01*
X107589286Y-131317857D01*
X107553571Y-131246429D01*
X107517857Y-131210714D01*
X107446428Y-131175000D01*
X107303571Y-131175000D01*
X107232143Y-131210714D01*
X107196428Y-131246429D01*
X107160714Y-131317857D01*
X103089286Y-131639286D02*
X102660714Y-131639286D01*
X102875000Y-131639286D02*
X102875000Y-130889286D01*
X102803571Y-130996429D01*
X102732143Y-131067857D01*
X102660714Y-131103571D01*
X103553572Y-130889286D02*
X103625000Y-130889286D01*
X103696429Y-130925000D01*
X103732143Y-130960714D01*
X103767857Y-131032143D01*
X103803572Y-131175000D01*
X103803572Y-131353571D01*
X103767857Y-131496429D01*
X103732143Y-131567857D01*
X103696429Y-131603571D01*
X103625000Y-131639286D01*
X103553572Y-131639286D01*
X103482143Y-131603571D01*
X103446429Y-131567857D01*
X103410714Y-131496429D01*
X103375000Y-131353571D01*
X103375000Y-131175000D01*
X103410714Y-131032143D01*
X103446429Y-130960714D01*
X103482143Y-130925000D01*
X103553572Y-130889286D01*
X104267858Y-130889286D02*
X104339286Y-130889286D01*
X104410715Y-130925000D01*
X104446429Y-130960714D01*
X104482143Y-131032143D01*
X104517858Y-131175000D01*
X104517858Y-131353571D01*
X104482143Y-131496429D01*
X104446429Y-131567857D01*
X104410715Y-131603571D01*
X104339286Y-131639286D01*
X104267858Y-131639286D01*
X104196429Y-131603571D01*
X104160715Y-131567857D01*
X104125000Y-131496429D01*
X104089286Y-131353571D01*
X104089286Y-131175000D01*
X104125000Y-131032143D01*
X104160715Y-130960714D01*
X104196429Y-130925000D01*
X104267858Y-130889286D01*
X105160715Y-131139286D02*
X105160715Y-131639286D01*
X104839286Y-131139286D02*
X104839286Y-131532143D01*
X104875001Y-131603571D01*
X104946429Y-131639286D01*
X105053572Y-131639286D01*
X105125001Y-131603571D01*
X105160715Y-131567857D01*
X105767857Y-131246429D02*
X105517857Y-131246429D01*
X105517857Y-131639286D02*
X105517857Y-130889286D01*
X105875000Y-130889286D01*
X130375000Y-131567857D02*
X130339286Y-131603571D01*
X130232143Y-131639286D01*
X130160714Y-131639286D01*
X130053571Y-131603571D01*
X129982143Y-131532143D01*
X129946428Y-131460714D01*
X129910714Y-131317857D01*
X129910714Y-131210714D01*
X129946428Y-131067857D01*
X129982143Y-130996429D01*
X130053571Y-130925000D01*
X130160714Y-130889286D01*
X130232143Y-130889286D01*
X130339286Y-130925000D01*
X130375000Y-130960714D01*
X130625000Y-130889286D02*
X131125000Y-130889286D01*
X130803571Y-131639286D01*
X126589286Y-131639286D02*
X126160714Y-131639286D01*
X126375000Y-131639286D02*
X126375000Y-130889286D01*
X126303571Y-130996429D01*
X126232143Y-131067857D01*
X126160714Y-131103571D01*
X127053572Y-130889286D02*
X127125000Y-130889286D01*
X127196429Y-130925000D01*
X127232143Y-130960714D01*
X127267857Y-131032143D01*
X127303572Y-131175000D01*
X127303572Y-131353571D01*
X127267857Y-131496429D01*
X127232143Y-131567857D01*
X127196429Y-131603571D01*
X127125000Y-131639286D01*
X127053572Y-131639286D01*
X126982143Y-131603571D01*
X126946429Y-131567857D01*
X126910714Y-131496429D01*
X126875000Y-131353571D01*
X126875000Y-131175000D01*
X126910714Y-131032143D01*
X126946429Y-130960714D01*
X126982143Y-130925000D01*
X127053572Y-130889286D01*
X127767858Y-130889286D02*
X127839286Y-130889286D01*
X127910715Y-130925000D01*
X127946429Y-130960714D01*
X127982143Y-131032143D01*
X128017858Y-131175000D01*
X128017858Y-131353571D01*
X127982143Y-131496429D01*
X127946429Y-131567857D01*
X127910715Y-131603571D01*
X127839286Y-131639286D01*
X127767858Y-131639286D01*
X127696429Y-131603571D01*
X127660715Y-131567857D01*
X127625000Y-131496429D01*
X127589286Y-131353571D01*
X127589286Y-131175000D01*
X127625000Y-131032143D01*
X127660715Y-130960714D01*
X127696429Y-130925000D01*
X127767858Y-130889286D01*
X128660715Y-131139286D02*
X128660715Y-131639286D01*
X128339286Y-131139286D02*
X128339286Y-131532143D01*
X128375001Y-131603571D01*
X128446429Y-131639286D01*
X128553572Y-131639286D01*
X128625001Y-131603571D01*
X128660715Y-131567857D01*
X129267857Y-131246429D02*
X129017857Y-131246429D01*
X129017857Y-131639286D02*
X129017857Y-130889286D01*
X129375000Y-130889286D01*
X105367857Y-110217857D02*
X105332143Y-110253571D01*
X105225000Y-110289286D01*
X105153571Y-110289286D01*
X105046428Y-110253571D01*
X104975000Y-110182143D01*
X104939285Y-110110714D01*
X104903571Y-109967857D01*
X104903571Y-109860714D01*
X104939285Y-109717857D01*
X104975000Y-109646429D01*
X105046428Y-109575000D01*
X105153571Y-109539286D01*
X105225000Y-109539286D01*
X105332143Y-109575000D01*
X105367857Y-109610714D01*
X105617857Y-109539286D02*
X106082143Y-109539286D01*
X105832143Y-109825000D01*
X105939285Y-109825000D01*
X106010714Y-109860714D01*
X106046428Y-109896429D01*
X106082143Y-109967857D01*
X106082143Y-110146429D01*
X106046428Y-110217857D01*
X106010714Y-110253571D01*
X105939285Y-110289286D01*
X105725000Y-110289286D01*
X105653571Y-110253571D01*
X105617857Y-110217857D01*
X106796429Y-110289286D02*
X106367857Y-110289286D01*
X106582143Y-110289286D02*
X106582143Y-109539286D01*
X106510714Y-109646429D01*
X106439286Y-109717857D01*
X106367857Y-109753571D01*
X100785714Y-108310714D02*
X100821428Y-108275000D01*
X100892857Y-108239286D01*
X101071428Y-108239286D01*
X101142857Y-108275000D01*
X101178571Y-108310714D01*
X101214286Y-108382143D01*
X101214286Y-108453571D01*
X101178571Y-108560714D01*
X100750000Y-108989286D01*
X101214286Y-108989286D01*
X101500000Y-108310714D02*
X101535714Y-108275000D01*
X101607143Y-108239286D01*
X101785714Y-108239286D01*
X101857143Y-108275000D01*
X101892857Y-108310714D01*
X101928572Y-108382143D01*
X101928572Y-108453571D01*
X101892857Y-108560714D01*
X101464286Y-108989286D01*
X101928572Y-108989286D01*
X102392858Y-108239286D02*
X102464286Y-108239286D01*
X102535715Y-108275000D01*
X102571429Y-108310714D01*
X102607143Y-108382143D01*
X102642858Y-108525000D01*
X102642858Y-108703571D01*
X102607143Y-108846429D01*
X102571429Y-108917857D01*
X102535715Y-108953571D01*
X102464286Y-108989286D01*
X102392858Y-108989286D01*
X102321429Y-108953571D01*
X102285715Y-108917857D01*
X102250000Y-108846429D01*
X102214286Y-108703571D01*
X102214286Y-108525000D01*
X102250000Y-108382143D01*
X102285715Y-108310714D01*
X102321429Y-108275000D01*
X102392858Y-108239286D01*
X102964286Y-108489286D02*
X102964286Y-109239286D01*
X102964286Y-108525000D02*
X103035715Y-108489286D01*
X103178572Y-108489286D01*
X103250001Y-108525000D01*
X103285715Y-108560714D01*
X103321429Y-108632143D01*
X103321429Y-108846429D01*
X103285715Y-108917857D01*
X103250001Y-108953571D01*
X103178572Y-108989286D01*
X103035715Y-108989286D01*
X102964286Y-108953571D01*
X103892857Y-108596429D02*
X103642857Y-108596429D01*
X103642857Y-108989286D02*
X103642857Y-108239286D01*
X104000000Y-108239286D01*
X104750001Y-108489286D02*
X105035715Y-108489286D01*
X104857143Y-108989286D02*
X104857143Y-108346429D01*
X104892858Y-108275000D01*
X104964286Y-108239286D01*
X105035715Y-108239286D01*
X105285714Y-108989286D02*
X105285714Y-108489286D01*
X105285714Y-108239286D02*
X105250000Y-108275000D01*
X105285714Y-108310714D01*
X105321429Y-108275000D01*
X105285714Y-108239286D01*
X105285714Y-108310714D01*
X105750000Y-108989286D02*
X105678572Y-108953571D01*
X105642857Y-108882143D01*
X105642857Y-108239286D01*
X106035714Y-108989286D02*
X106035714Y-108489286D01*
X106035714Y-108560714D02*
X106071429Y-108525000D01*
X106142857Y-108489286D01*
X106250000Y-108489286D01*
X106321429Y-108525000D01*
X106357143Y-108596429D01*
X106357143Y-108989286D01*
X106357143Y-108596429D02*
X106392857Y-108525000D01*
X106464286Y-108489286D01*
X106571429Y-108489286D01*
X106642857Y-108525000D01*
X106678572Y-108596429D01*
X106678572Y-108989286D01*
X104639286Y-118171429D02*
X104639286Y-118528572D01*
X103889286Y-118528572D01*
X104639286Y-117921429D02*
X103889286Y-117921429D01*
X104425000Y-117671429D01*
X103889286Y-117421429D01*
X104639286Y-117421429D01*
X104246429Y-117064286D02*
X104246429Y-116814286D01*
X104639286Y-116707143D02*
X104639286Y-117064286D01*
X103889286Y-117064286D01*
X103889286Y-116707143D01*
X104139286Y-116064286D02*
X104639286Y-116064286D01*
X103853571Y-116242857D02*
X104389286Y-116421429D01*
X104389286Y-115957143D01*
X104639286Y-115635714D02*
X104639286Y-115492857D01*
X104603571Y-115421429D01*
X104567857Y-115385714D01*
X104460714Y-115314286D01*
X104317857Y-115278571D01*
X104032143Y-115278571D01*
X103960714Y-115314286D01*
X103925000Y-115350000D01*
X103889286Y-115421429D01*
X103889286Y-115564286D01*
X103925000Y-115635714D01*
X103960714Y-115671429D01*
X104032143Y-115707143D01*
X104210714Y-115707143D01*
X104282143Y-115671429D01*
X104317857Y-115635714D01*
X104353571Y-115564286D01*
X104353571Y-115421429D01*
X104317857Y-115350000D01*
X104282143Y-115314286D01*
X104210714Y-115278571D01*
X103889286Y-115028571D02*
X103889286Y-114528571D01*
X104639286Y-114850000D01*
X104639286Y-113849999D02*
X104639286Y-114278571D01*
X104639286Y-114064285D02*
X103889286Y-114064285D01*
X103996429Y-114135714D01*
X104067857Y-114207142D01*
X104103571Y-114278571D01*
X103889286Y-113385713D02*
X103889286Y-113314285D01*
X103925000Y-113242856D01*
X103960714Y-113207142D01*
X104032143Y-113171428D01*
X104175000Y-113135713D01*
X104353571Y-113135713D01*
X104496429Y-113171428D01*
X104567857Y-113207142D01*
X104603571Y-113242856D01*
X104639286Y-113314285D01*
X104639286Y-113385713D01*
X104603571Y-113457142D01*
X104567857Y-113492856D01*
X104496429Y-113528571D01*
X104353571Y-113564285D01*
X104175000Y-113564285D01*
X104032143Y-113528571D01*
X103960714Y-113492856D01*
X103925000Y-113457142D01*
X103889286Y-113385713D01*
X123899285Y-124469286D02*
X123542142Y-124469286D01*
X123542142Y-123719286D01*
X124399285Y-124076429D02*
X124149285Y-124076429D01*
X124149285Y-124469286D02*
X124149285Y-123719286D01*
X124506428Y-123719286D01*
X124720714Y-123719286D02*
X125185000Y-123719286D01*
X124935000Y-124005000D01*
X125042142Y-124005000D01*
X125113571Y-124040714D01*
X125149285Y-124076429D01*
X125185000Y-124147857D01*
X125185000Y-124326429D01*
X125149285Y-124397857D01*
X125113571Y-124433571D01*
X125042142Y-124469286D01*
X124827857Y-124469286D01*
X124756428Y-124433571D01*
X124720714Y-124397857D01*
X125863571Y-123719286D02*
X125506428Y-123719286D01*
X125470714Y-124076429D01*
X125506428Y-124040714D01*
X125577857Y-124005000D01*
X125756428Y-124005000D01*
X125827857Y-124040714D01*
X125863571Y-124076429D01*
X125899286Y-124147857D01*
X125899286Y-124326429D01*
X125863571Y-124397857D01*
X125827857Y-124433571D01*
X125756428Y-124469286D01*
X125577857Y-124469286D01*
X125506428Y-124433571D01*
X125470714Y-124397857D01*
X126542143Y-123719286D02*
X126399286Y-123719286D01*
X126327857Y-123755000D01*
X126292143Y-123790714D01*
X126220714Y-123897857D01*
X126185000Y-124040714D01*
X126185000Y-124326429D01*
X126220714Y-124397857D01*
X126256429Y-124433571D01*
X126327857Y-124469286D01*
X126470714Y-124469286D01*
X126542143Y-124433571D01*
X126577857Y-124397857D01*
X126613572Y-124326429D01*
X126613572Y-124147857D01*
X126577857Y-124076429D01*
X126542143Y-124040714D01*
X126470714Y-124005000D01*
X126327857Y-124005000D01*
X126256429Y-124040714D01*
X126220714Y-124076429D01*
X126185000Y-124147857D01*
X117289286Y-108875000D02*
X116932143Y-109125000D01*
X117289286Y-109303572D02*
X116539286Y-109303572D01*
X116539286Y-109017857D01*
X116575000Y-108946429D01*
X116610714Y-108910714D01*
X116682143Y-108875000D01*
X116789286Y-108875000D01*
X116860714Y-108910714D01*
X116896429Y-108946429D01*
X116932143Y-109017857D01*
X116932143Y-109303572D01*
X117289286Y-108160714D02*
X117289286Y-108589286D01*
X117289286Y-108375000D02*
X116539286Y-108375000D01*
X116646429Y-108446429D01*
X116717857Y-108517857D01*
X116753571Y-108589286D01*
X117939286Y-107603572D02*
X118439286Y-107603572D01*
X117653571Y-107782143D02*
X118189286Y-107960715D01*
X118189286Y-107496429D01*
X118439286Y-107175000D02*
X118439286Y-107032143D01*
X118403571Y-106960715D01*
X118367857Y-106925000D01*
X118260714Y-106853572D01*
X118117857Y-106817857D01*
X117832143Y-106817857D01*
X117760714Y-106853572D01*
X117725000Y-106889286D01*
X117689286Y-106960715D01*
X117689286Y-107103572D01*
X117725000Y-107175000D01*
X117760714Y-107210715D01*
X117832143Y-107246429D01*
X118010714Y-107246429D01*
X118082143Y-107210715D01*
X118117857Y-107175000D01*
X118153571Y-107103572D01*
X118153571Y-106960715D01*
X118117857Y-106889286D01*
X118082143Y-106853572D01*
X118010714Y-106817857D01*
X118367857Y-106496429D02*
X118403571Y-106460714D01*
X118439286Y-106496429D01*
X118403571Y-106532143D01*
X118367857Y-106496429D01*
X118439286Y-106496429D01*
X118439286Y-106103571D02*
X118439286Y-105960714D01*
X118403571Y-105889286D01*
X118367857Y-105853571D01*
X118260714Y-105782143D01*
X118117857Y-105746428D01*
X117832143Y-105746428D01*
X117760714Y-105782143D01*
X117725000Y-105817857D01*
X117689286Y-105889286D01*
X117689286Y-106032143D01*
X117725000Y-106103571D01*
X117760714Y-106139286D01*
X117832143Y-106175000D01*
X118010714Y-106175000D01*
X118082143Y-106139286D01*
X118117857Y-106103571D01*
X118153571Y-106032143D01*
X118153571Y-105889286D01*
X118117857Y-105817857D01*
X118082143Y-105782143D01*
X118010714Y-105746428D01*
X118439286Y-105425000D02*
X117689286Y-105425000D01*
X118153571Y-105353571D02*
X118439286Y-105139285D01*
X117939286Y-105139285D02*
X118225000Y-105425000D01*
X133917857Y-119289286D02*
X133667857Y-118932143D01*
X133489285Y-119289286D02*
X133489285Y-118539286D01*
X133775000Y-118539286D01*
X133846428Y-118575000D01*
X133882143Y-118610714D01*
X133917857Y-118682143D01*
X133917857Y-118789286D01*
X133882143Y-118860714D01*
X133846428Y-118896429D01*
X133775000Y-118932143D01*
X133489285Y-118932143D01*
X134632143Y-119289286D02*
X134203571Y-119289286D01*
X134417857Y-119289286D02*
X134417857Y-118539286D01*
X134346428Y-118646429D01*
X134275000Y-118717857D01*
X134203571Y-118753571D01*
X135096429Y-118539286D02*
X135167857Y-118539286D01*
X135239286Y-118575000D01*
X135275000Y-118610714D01*
X135310714Y-118682143D01*
X135346429Y-118825000D01*
X135346429Y-119003571D01*
X135310714Y-119146429D01*
X135275000Y-119217857D01*
X135239286Y-119253571D01*
X135167857Y-119289286D01*
X135096429Y-119289286D01*
X135025000Y-119253571D01*
X134989286Y-119217857D01*
X134953571Y-119146429D01*
X134917857Y-119003571D01*
X134917857Y-118825000D01*
X134953571Y-118682143D01*
X134989286Y-118610714D01*
X135025000Y-118575000D01*
X135096429Y-118539286D01*
X136450000Y-120389286D02*
X136021428Y-120389286D01*
X136235714Y-120389286D02*
X136235714Y-119639286D01*
X136164285Y-119746429D01*
X136092857Y-119817857D01*
X136021428Y-119853571D01*
X136914286Y-119639286D02*
X136985714Y-119639286D01*
X137057143Y-119675000D01*
X137092857Y-119710714D01*
X137128571Y-119782143D01*
X137164286Y-119925000D01*
X137164286Y-120103571D01*
X137128571Y-120246429D01*
X137092857Y-120317857D01*
X137057143Y-120353571D01*
X136985714Y-120389286D01*
X136914286Y-120389286D01*
X136842857Y-120353571D01*
X136807143Y-120317857D01*
X136771428Y-120246429D01*
X136735714Y-120103571D01*
X136735714Y-119925000D01*
X136771428Y-119782143D01*
X136807143Y-119710714D01*
X136842857Y-119675000D01*
X136914286Y-119639286D01*
X137628572Y-119639286D02*
X137700000Y-119639286D01*
X137771429Y-119675000D01*
X137807143Y-119710714D01*
X137842857Y-119782143D01*
X137878572Y-119925000D01*
X137878572Y-120103571D01*
X137842857Y-120246429D01*
X137807143Y-120317857D01*
X137771429Y-120353571D01*
X137700000Y-120389286D01*
X137628572Y-120389286D01*
X137557143Y-120353571D01*
X137521429Y-120317857D01*
X137485714Y-120246429D01*
X137450000Y-120103571D01*
X137450000Y-119925000D01*
X137485714Y-119782143D01*
X137521429Y-119710714D01*
X137557143Y-119675000D01*
X137628572Y-119639286D01*
X137717857Y-108339286D02*
X137467857Y-107982143D01*
X137289285Y-108339286D02*
X137289285Y-107589286D01*
X137575000Y-107589286D01*
X137646428Y-107625000D01*
X137682143Y-107660714D01*
X137717857Y-107732143D01*
X137717857Y-107839286D01*
X137682143Y-107910714D01*
X137646428Y-107946429D01*
X137575000Y-107982143D01*
X137289285Y-107982143D01*
X138432143Y-108339286D02*
X138003571Y-108339286D01*
X138217857Y-108339286D02*
X138217857Y-107589286D01*
X138146428Y-107696429D01*
X138075000Y-107767857D01*
X138003571Y-107803571D01*
X139146429Y-108339286D02*
X138717857Y-108339286D01*
X138932143Y-108339286D02*
X138932143Y-107589286D01*
X138860714Y-107696429D01*
X138789286Y-107767857D01*
X138717857Y-107803571D01*
X137700000Y-107339286D02*
X137271428Y-107339286D01*
X137485714Y-107339286D02*
X137485714Y-106589286D01*
X137414285Y-106696429D01*
X137342857Y-106767857D01*
X137271428Y-106803571D01*
X138164286Y-106589286D02*
X138235714Y-106589286D01*
X138307143Y-106625000D01*
X138342857Y-106660714D01*
X138378571Y-106732143D01*
X138414286Y-106875000D01*
X138414286Y-107053571D01*
X138378571Y-107196429D01*
X138342857Y-107267857D01*
X138307143Y-107303571D01*
X138235714Y-107339286D01*
X138164286Y-107339286D01*
X138092857Y-107303571D01*
X138057143Y-107267857D01*
X138021428Y-107196429D01*
X137985714Y-107053571D01*
X137985714Y-106875000D01*
X138021428Y-106732143D01*
X138057143Y-106660714D01*
X138092857Y-106625000D01*
X138164286Y-106589286D01*
X138878572Y-106589286D02*
X138950000Y-106589286D01*
X139021429Y-106625000D01*
X139057143Y-106660714D01*
X139092857Y-106732143D01*
X139128572Y-106875000D01*
X139128572Y-107053571D01*
X139092857Y-107196429D01*
X139057143Y-107267857D01*
X139021429Y-107303571D01*
X138950000Y-107339286D01*
X138878572Y-107339286D01*
X138807143Y-107303571D01*
X138771429Y-107267857D01*
X138735714Y-107196429D01*
X138700000Y-107053571D01*
X138700000Y-106875000D01*
X138735714Y-106732143D01*
X138771429Y-106660714D01*
X138807143Y-106625000D01*
X138878572Y-106589286D01*
X137717857Y-111339286D02*
X137467857Y-110982143D01*
X137289285Y-111339286D02*
X137289285Y-110589286D01*
X137575000Y-110589286D01*
X137646428Y-110625000D01*
X137682143Y-110660714D01*
X137717857Y-110732143D01*
X137717857Y-110839286D01*
X137682143Y-110910714D01*
X137646428Y-110946429D01*
X137575000Y-110982143D01*
X137289285Y-110982143D01*
X138432143Y-111339286D02*
X138003571Y-111339286D01*
X138217857Y-111339286D02*
X138217857Y-110589286D01*
X138146428Y-110696429D01*
X138075000Y-110767857D01*
X138003571Y-110803571D01*
X138682143Y-110589286D02*
X139146429Y-110589286D01*
X138896429Y-110875000D01*
X139003571Y-110875000D01*
X139075000Y-110910714D01*
X139110714Y-110946429D01*
X139146429Y-111017857D01*
X139146429Y-111196429D01*
X139110714Y-111267857D01*
X139075000Y-111303571D01*
X139003571Y-111339286D01*
X138789286Y-111339286D01*
X138717857Y-111303571D01*
X138682143Y-111267857D01*
X137753572Y-110089286D02*
X137325000Y-110089286D01*
X137539286Y-110089286D02*
X137539286Y-109339286D01*
X137467857Y-109446429D01*
X137396429Y-109517857D01*
X137325000Y-109553571D01*
X138217858Y-109339286D02*
X138289286Y-109339286D01*
X138360715Y-109375000D01*
X138396429Y-109410714D01*
X138432143Y-109482143D01*
X138467858Y-109625000D01*
X138467858Y-109803571D01*
X138432143Y-109946429D01*
X138396429Y-110017857D01*
X138360715Y-110053571D01*
X138289286Y-110089286D01*
X138217858Y-110089286D01*
X138146429Y-110053571D01*
X138110715Y-110017857D01*
X138075000Y-109946429D01*
X138039286Y-109803571D01*
X138039286Y-109625000D01*
X138075000Y-109482143D01*
X138110715Y-109410714D01*
X138146429Y-109375000D01*
X138217858Y-109339286D01*
X138789286Y-110089286D02*
X138789286Y-109339286D01*
X138860715Y-109803571D02*
X139075001Y-110089286D01*
X139075001Y-109589286D02*
X138789286Y-109875000D01*
X112767857Y-137139286D02*
X112517857Y-136782143D01*
X112339285Y-137139286D02*
X112339285Y-136389286D01*
X112625000Y-136389286D01*
X112696428Y-136425000D01*
X112732143Y-136460714D01*
X112767857Y-136532143D01*
X112767857Y-136639286D01*
X112732143Y-136710714D01*
X112696428Y-136746429D01*
X112625000Y-136782143D01*
X112339285Y-136782143D01*
X113053571Y-136460714D02*
X113089285Y-136425000D01*
X113160714Y-136389286D01*
X113339285Y-136389286D01*
X113410714Y-136425000D01*
X113446428Y-136460714D01*
X113482143Y-136532143D01*
X113482143Y-136603571D01*
X113446428Y-136710714D01*
X113017857Y-137139286D01*
X113482143Y-137139286D01*
X113767857Y-136460714D02*
X113803571Y-136425000D01*
X113875000Y-136389286D01*
X114053571Y-136389286D01*
X114125000Y-136425000D01*
X114160714Y-136460714D01*
X114196429Y-136532143D01*
X114196429Y-136603571D01*
X114160714Y-136710714D01*
X113732143Y-137139286D01*
X114196429Y-137139286D01*
X112678571Y-135639286D02*
X112678571Y-136139286D01*
X112500000Y-135353571D02*
X112321428Y-135889286D01*
X112785714Y-135889286D01*
X113000000Y-135389286D02*
X113500000Y-135389286D01*
X113178571Y-136139286D01*
X114142857Y-135389286D02*
X113785714Y-135389286D01*
X113750000Y-135746429D01*
X113785714Y-135710714D01*
X113857143Y-135675000D01*
X114035714Y-135675000D01*
X114107143Y-135710714D01*
X114142857Y-135746429D01*
X114178572Y-135817857D01*
X114178572Y-135996429D01*
X114142857Y-136067857D01*
X114107143Y-136103571D01*
X114035714Y-136139286D01*
X113857143Y-136139286D01*
X113785714Y-136103571D01*
X113750000Y-136067857D01*
X112717857Y-131589286D02*
X112467857Y-131232143D01*
X112289285Y-131589286D02*
X112289285Y-130839286D01*
X112575000Y-130839286D01*
X112646428Y-130875000D01*
X112682143Y-130910714D01*
X112717857Y-130982143D01*
X112717857Y-131089286D01*
X112682143Y-131160714D01*
X112646428Y-131196429D01*
X112575000Y-131232143D01*
X112289285Y-131232143D01*
X113003571Y-130910714D02*
X113039285Y-130875000D01*
X113110714Y-130839286D01*
X113289285Y-130839286D01*
X113360714Y-130875000D01*
X113396428Y-130910714D01*
X113432143Y-130982143D01*
X113432143Y-131053571D01*
X113396428Y-131160714D01*
X112967857Y-131589286D01*
X113432143Y-131589286D01*
X113682143Y-130839286D02*
X114146429Y-130839286D01*
X113896429Y-131125000D01*
X114003571Y-131125000D01*
X114075000Y-131160714D01*
X114110714Y-131196429D01*
X114146429Y-131267857D01*
X114146429Y-131446429D01*
X114110714Y-131517857D01*
X114075000Y-131553571D01*
X114003571Y-131589286D01*
X113789286Y-131589286D01*
X113717857Y-131553571D01*
X113682143Y-131517857D01*
X111914286Y-130589286D02*
X112057143Y-130589286D01*
X112128571Y-130553571D01*
X112164286Y-130517857D01*
X112235714Y-130410714D01*
X112271429Y-130267857D01*
X112271429Y-129982143D01*
X112235714Y-129910714D01*
X112200000Y-129875000D01*
X112128571Y-129839286D01*
X111985714Y-129839286D01*
X111914286Y-129875000D01*
X111878571Y-129910714D01*
X111842857Y-129982143D01*
X111842857Y-130160714D01*
X111878571Y-130232143D01*
X111914286Y-130267857D01*
X111985714Y-130303571D01*
X112128571Y-130303571D01*
X112200000Y-130267857D01*
X112235714Y-130232143D01*
X112271429Y-130160714D01*
X112735715Y-129839286D02*
X112807143Y-129839286D01*
X112878572Y-129875000D01*
X112914286Y-129910714D01*
X112950000Y-129982143D01*
X112985715Y-130125000D01*
X112985715Y-130303571D01*
X112950000Y-130446429D01*
X112914286Y-130517857D01*
X112878572Y-130553571D01*
X112807143Y-130589286D01*
X112735715Y-130589286D01*
X112664286Y-130553571D01*
X112628572Y-130517857D01*
X112592857Y-130446429D01*
X112557143Y-130303571D01*
X112557143Y-130125000D01*
X112592857Y-129982143D01*
X112628572Y-129910714D01*
X112664286Y-129875000D01*
X112735715Y-129839286D01*
X113307143Y-130517857D02*
X113342858Y-130553571D01*
X113307143Y-130589286D01*
X113271429Y-130553571D01*
X113307143Y-130517857D01*
X113307143Y-130589286D01*
X113700001Y-130589286D02*
X113842858Y-130589286D01*
X113914286Y-130553571D01*
X113950001Y-130517857D01*
X114021429Y-130410714D01*
X114057144Y-130267857D01*
X114057144Y-129982143D01*
X114021429Y-129910714D01*
X113985715Y-129875000D01*
X113914286Y-129839286D01*
X113771429Y-129839286D01*
X113700001Y-129875000D01*
X113664286Y-129910714D01*
X113628572Y-129982143D01*
X113628572Y-130160714D01*
X113664286Y-130232143D01*
X113700001Y-130267857D01*
X113771429Y-130303571D01*
X113914286Y-130303571D01*
X113985715Y-130267857D01*
X114021429Y-130232143D01*
X114057144Y-130160714D01*
X112767857Y-134389286D02*
X112517857Y-134032143D01*
X112339285Y-134389286D02*
X112339285Y-133639286D01*
X112625000Y-133639286D01*
X112696428Y-133675000D01*
X112732143Y-133710714D01*
X112767857Y-133782143D01*
X112767857Y-133889286D01*
X112732143Y-133960714D01*
X112696428Y-133996429D01*
X112625000Y-134032143D01*
X112339285Y-134032143D01*
X113053571Y-133710714D02*
X113089285Y-133675000D01*
X113160714Y-133639286D01*
X113339285Y-133639286D01*
X113410714Y-133675000D01*
X113446428Y-133710714D01*
X113482143Y-133782143D01*
X113482143Y-133853571D01*
X113446428Y-133960714D01*
X113017857Y-134389286D01*
X113482143Y-134389286D01*
X114125000Y-133889286D02*
X114125000Y-134389286D01*
X113946429Y-133603571D02*
X113767857Y-134139286D01*
X114232143Y-134139286D01*
X112232143Y-132889286D02*
X112232143Y-133389286D01*
X112053572Y-132603571D02*
X111875000Y-133139286D01*
X112339286Y-133139286D01*
X112625000Y-133317857D02*
X112660715Y-133353571D01*
X112625000Y-133389286D01*
X112589286Y-133353571D01*
X112625000Y-133317857D01*
X112625000Y-133389286D01*
X112910715Y-132639286D02*
X113410715Y-132639286D01*
X113089286Y-133389286D01*
X113696429Y-133389286D02*
X113696429Y-132639286D01*
X114125001Y-133389286D02*
X113803572Y-132960714D01*
X114125001Y-132639286D02*
X113696429Y-133067857D01*
X110367857Y-105989286D02*
X110117857Y-105632143D01*
X109939285Y-105989286D02*
X109939285Y-105239286D01*
X110225000Y-105239286D01*
X110296428Y-105275000D01*
X110332143Y-105310714D01*
X110367857Y-105382143D01*
X110367857Y-105489286D01*
X110332143Y-105560714D01*
X110296428Y-105596429D01*
X110225000Y-105632143D01*
X109939285Y-105632143D01*
X110617857Y-105239286D02*
X111082143Y-105239286D01*
X110832143Y-105525000D01*
X110939285Y-105525000D01*
X111010714Y-105560714D01*
X111046428Y-105596429D01*
X111082143Y-105667857D01*
X111082143Y-105846429D01*
X111046428Y-105917857D01*
X111010714Y-105953571D01*
X110939285Y-105989286D01*
X110725000Y-105989286D01*
X110653571Y-105953571D01*
X110617857Y-105917857D01*
X111796429Y-105989286D02*
X111367857Y-105989286D01*
X111582143Y-105989286D02*
X111582143Y-105239286D01*
X111510714Y-105346429D01*
X111439286Y-105417857D01*
X111367857Y-105453571D01*
X110303572Y-106989286D02*
X109875000Y-106989286D01*
X110089286Y-106989286D02*
X110089286Y-106239286D01*
X110017857Y-106346429D01*
X109946429Y-106417857D01*
X109875000Y-106453571D01*
X110767858Y-106239286D02*
X110839286Y-106239286D01*
X110910715Y-106275000D01*
X110946429Y-106310714D01*
X110982143Y-106382143D01*
X111017858Y-106525000D01*
X111017858Y-106703571D01*
X110982143Y-106846429D01*
X110946429Y-106917857D01*
X110910715Y-106953571D01*
X110839286Y-106989286D01*
X110767858Y-106989286D01*
X110696429Y-106953571D01*
X110660715Y-106917857D01*
X110625000Y-106846429D01*
X110589286Y-106703571D01*
X110589286Y-106525000D01*
X110625000Y-106382143D01*
X110660715Y-106310714D01*
X110696429Y-106275000D01*
X110767858Y-106239286D01*
X111339286Y-106989286D02*
X111339286Y-106239286D01*
X111410715Y-106703571D02*
X111625001Y-106989286D01*
X111625001Y-106489286D02*
X111339286Y-106775000D01*
X123232142Y-142389286D02*
X122874999Y-142389286D01*
X122874999Y-141639286D01*
X123482142Y-142389286D02*
X123482142Y-141639286D01*
X123732142Y-142175000D01*
X123982142Y-141639286D01*
X123982142Y-142389286D01*
X124267857Y-141639286D02*
X124732143Y-141639286D01*
X124482143Y-141925000D01*
X124589285Y-141925000D01*
X124660714Y-141960714D01*
X124696428Y-141996429D01*
X124732143Y-142067857D01*
X124732143Y-142246429D01*
X124696428Y-142317857D01*
X124660714Y-142353571D01*
X124589285Y-142389286D01*
X124375000Y-142389286D01*
X124303571Y-142353571D01*
X124267857Y-142317857D01*
X125446429Y-142389286D02*
X125017857Y-142389286D01*
X125232143Y-142389286D02*
X125232143Y-141639286D01*
X125160714Y-141746429D01*
X125089286Y-141817857D01*
X125017857Y-141853571D01*
X125696429Y-141639286D02*
X126196429Y-141639286D01*
X125875000Y-142389286D01*
X119825000Y-99017857D02*
X119789286Y-99053571D01*
X119682143Y-99089286D01*
X119610714Y-99089286D01*
X119503571Y-99053571D01*
X119432143Y-98982143D01*
X119396428Y-98910714D01*
X119360714Y-98767857D01*
X119360714Y-98660714D01*
X119396428Y-98517857D01*
X119432143Y-98446429D01*
X119503571Y-98375000D01*
X119610714Y-98339286D01*
X119682143Y-98339286D01*
X119789286Y-98375000D01*
X119825000Y-98410714D01*
X120539286Y-99089286D02*
X120110714Y-99089286D01*
X120325000Y-99089286D02*
X120325000Y-98339286D01*
X120253571Y-98446429D01*
X120182143Y-98517857D01*
X120110714Y-98553571D01*
X119207143Y-108239286D02*
X119671429Y-108239286D01*
X119421429Y-108525000D01*
X119528571Y-108525000D01*
X119600000Y-108560714D01*
X119635714Y-108596429D01*
X119671429Y-108667857D01*
X119671429Y-108846429D01*
X119635714Y-108917857D01*
X119600000Y-108953571D01*
X119528571Y-108989286D01*
X119314286Y-108989286D01*
X119242857Y-108953571D01*
X119207143Y-108917857D01*
X119921429Y-108239286D02*
X120385715Y-108239286D01*
X120135715Y-108525000D01*
X120242857Y-108525000D01*
X120314286Y-108560714D01*
X120350000Y-108596429D01*
X120385715Y-108667857D01*
X120385715Y-108846429D01*
X120350000Y-108917857D01*
X120314286Y-108953571D01*
X120242857Y-108989286D01*
X120028572Y-108989286D01*
X119957143Y-108953571D01*
X119921429Y-108917857D01*
X120707143Y-108489286D02*
X120707143Y-108989286D01*
X120707143Y-108560714D02*
X120742858Y-108525000D01*
X120814286Y-108489286D01*
X120921429Y-108489286D01*
X120992858Y-108525000D01*
X121028572Y-108596429D01*
X121028572Y-108989286D01*
X121635714Y-108596429D02*
X121385714Y-108596429D01*
X121385714Y-108989286D02*
X121385714Y-108239286D01*
X121742857Y-108239286D01*
X122492858Y-108489286D02*
X122778572Y-108489286D01*
X122600000Y-108989286D02*
X122600000Y-108346429D01*
X122635715Y-108275000D01*
X122707143Y-108239286D01*
X122778572Y-108239286D01*
X123028571Y-108989286D02*
X123028571Y-108489286D01*
X123028571Y-108239286D02*
X122992857Y-108275000D01*
X123028571Y-108310714D01*
X123064286Y-108275000D01*
X123028571Y-108239286D01*
X123028571Y-108310714D01*
X123492857Y-108989286D02*
X123421429Y-108953571D01*
X123385714Y-108882143D01*
X123385714Y-108239286D01*
X123778571Y-108989286D02*
X123778571Y-108489286D01*
X123778571Y-108560714D02*
X123814286Y-108525000D01*
X123885714Y-108489286D01*
X123992857Y-108489286D01*
X124064286Y-108525000D01*
X124100000Y-108596429D01*
X124100000Y-108989286D01*
X124100000Y-108596429D02*
X124135714Y-108525000D01*
X124207143Y-108489286D01*
X124314286Y-108489286D01*
X124385714Y-108525000D01*
X124421429Y-108596429D01*
X124421429Y-108989286D01*
X112067857Y-142025000D02*
X112103571Y-142060714D01*
X112139286Y-142167857D01*
X112139286Y-142239286D01*
X112103571Y-142346429D01*
X112032143Y-142417857D01*
X111960714Y-142453572D01*
X111817857Y-142489286D01*
X111710714Y-142489286D01*
X111567857Y-142453572D01*
X111496429Y-142417857D01*
X111425000Y-142346429D01*
X111389286Y-142239286D01*
X111389286Y-142167857D01*
X111425000Y-142060714D01*
X111460714Y-142025000D01*
X111389286Y-141346429D02*
X111389286Y-141703572D01*
X111746429Y-141739286D01*
X111710714Y-141703572D01*
X111675000Y-141632143D01*
X111675000Y-141453572D01*
X111710714Y-141382143D01*
X111746429Y-141346429D01*
X111817857Y-141310714D01*
X111996429Y-141310714D01*
X112067857Y-141346429D01*
X112103571Y-141382143D01*
X112139286Y-141453572D01*
X112139286Y-141632143D01*
X112103571Y-141703572D01*
X112067857Y-141739286D01*
X113267858Y-137889286D02*
X113339286Y-137889286D01*
X113410715Y-137925000D01*
X113446429Y-137960714D01*
X113482143Y-138032143D01*
X113517858Y-138175000D01*
X113517858Y-138353571D01*
X113482143Y-138496429D01*
X113446429Y-138567857D01*
X113410715Y-138603571D01*
X113339286Y-138639286D01*
X113267858Y-138639286D01*
X113196429Y-138603571D01*
X113160715Y-138567857D01*
X113125000Y-138496429D01*
X113089286Y-138353571D01*
X113089286Y-138175000D01*
X113125000Y-138032143D01*
X113160715Y-137960714D01*
X113196429Y-137925000D01*
X113267858Y-137889286D01*
X113839286Y-138567857D02*
X113875001Y-138603571D01*
X113839286Y-138639286D01*
X113803572Y-138603571D01*
X113839286Y-138567857D01*
X113839286Y-138639286D01*
X114589287Y-138639286D02*
X114160715Y-138639286D01*
X114375001Y-138639286D02*
X114375001Y-137889286D01*
X114303572Y-137996429D01*
X114232144Y-138067857D01*
X114160715Y-138103571D01*
X115232144Y-138139286D02*
X115232144Y-138639286D01*
X114910715Y-138139286D02*
X114910715Y-138532143D01*
X114946430Y-138603571D01*
X115017858Y-138639286D01*
X115125001Y-138639286D01*
X115196430Y-138603571D01*
X115232144Y-138567857D01*
X115839286Y-138246429D02*
X115589286Y-138246429D01*
X115589286Y-138639286D02*
X115589286Y-137889286D01*
X115946429Y-137889286D01*
X101317857Y-119682143D02*
X101353571Y-119717857D01*
X101389286Y-119825000D01*
X101389286Y-119896429D01*
X101353571Y-120003572D01*
X101282143Y-120075000D01*
X101210714Y-120110715D01*
X101067857Y-120146429D01*
X100960714Y-120146429D01*
X100817857Y-120110715D01*
X100746429Y-120075000D01*
X100675000Y-120003572D01*
X100639286Y-119896429D01*
X100639286Y-119825000D01*
X100675000Y-119717857D01*
X100710714Y-119682143D01*
X101389286Y-118967857D02*
X101389286Y-119396429D01*
X101389286Y-119182143D02*
X100639286Y-119182143D01*
X100746429Y-119253572D01*
X100817857Y-119325000D01*
X100853571Y-119396429D01*
X100639286Y-118503571D02*
X100639286Y-118432143D01*
X100675000Y-118360714D01*
X100710714Y-118325000D01*
X100782143Y-118289286D01*
X100925000Y-118253571D01*
X101103571Y-118253571D01*
X101246429Y-118289286D01*
X101317857Y-118325000D01*
X101353571Y-118360714D01*
X101389286Y-118432143D01*
X101389286Y-118503571D01*
X101353571Y-118575000D01*
X101317857Y-118610714D01*
X101246429Y-118646429D01*
X101103571Y-118682143D01*
X100925000Y-118682143D01*
X100782143Y-118646429D01*
X100710714Y-118610714D01*
X100675000Y-118575000D01*
X100639286Y-118503571D01*
X98853572Y-123289286D02*
X98425000Y-123289286D01*
X98639286Y-123289286D02*
X98639286Y-122539286D01*
X98567857Y-122646429D01*
X98496429Y-122717857D01*
X98425000Y-122753571D01*
X99496429Y-122789286D02*
X99496429Y-123289286D01*
X99175000Y-122789286D02*
X99175000Y-123182143D01*
X99210715Y-123253571D01*
X99282143Y-123289286D01*
X99389286Y-123289286D01*
X99460715Y-123253571D01*
X99496429Y-123217857D01*
X100103571Y-122896429D02*
X99853571Y-122896429D01*
X99853571Y-123289286D02*
X99853571Y-122539286D01*
X100210714Y-122539286D01*
X101167857Y-116782143D02*
X101203571Y-116817857D01*
X101239286Y-116925000D01*
X101239286Y-116996429D01*
X101203571Y-117103572D01*
X101132143Y-117175000D01*
X101060714Y-117210715D01*
X100917857Y-117246429D01*
X100810714Y-117246429D01*
X100667857Y-117210715D01*
X100596429Y-117175000D01*
X100525000Y-117103572D01*
X100489286Y-116996429D01*
X100489286Y-116925000D01*
X100525000Y-116817857D01*
X100560714Y-116782143D01*
X101239286Y-116067857D02*
X101239286Y-116496429D01*
X101239286Y-116282143D02*
X100489286Y-116282143D01*
X100596429Y-116353572D01*
X100667857Y-116425000D01*
X100703571Y-116496429D01*
X101239286Y-115353571D02*
X101239286Y-115782143D01*
X101239286Y-115567857D02*
X100489286Y-115567857D01*
X100596429Y-115639286D01*
X100667857Y-115710714D01*
X100703571Y-115782143D01*
X98953572Y-112889286D02*
X98525000Y-112889286D01*
X98739286Y-112889286D02*
X98739286Y-112139286D01*
X98667857Y-112246429D01*
X98596429Y-112317857D01*
X98525000Y-112353571D01*
X99596429Y-112389286D02*
X99596429Y-112889286D01*
X99275000Y-112389286D02*
X99275000Y-112782143D01*
X99310715Y-112853571D01*
X99382143Y-112889286D01*
X99489286Y-112889286D01*
X99560715Y-112853571D01*
X99596429Y-112817857D01*
X100203571Y-112496429D02*
X99953571Y-112496429D01*
X99953571Y-112889286D02*
X99953571Y-112139286D01*
X100310714Y-112139286D01*
X131067857Y-113117857D02*
X131032143Y-113153571D01*
X130925000Y-113189286D01*
X130853571Y-113189286D01*
X130746428Y-113153571D01*
X130675000Y-113082143D01*
X130639285Y-113010714D01*
X130603571Y-112867857D01*
X130603571Y-112760714D01*
X130639285Y-112617857D01*
X130675000Y-112546429D01*
X130746428Y-112475000D01*
X130853571Y-112439286D01*
X130925000Y-112439286D01*
X131032143Y-112475000D01*
X131067857Y-112510714D01*
X131782143Y-113189286D02*
X131353571Y-113189286D01*
X131567857Y-113189286D02*
X131567857Y-112439286D01*
X131496428Y-112546429D01*
X131425000Y-112617857D01*
X131353571Y-112653571D01*
X132067857Y-112510714D02*
X132103571Y-112475000D01*
X132175000Y-112439286D01*
X132353571Y-112439286D01*
X132425000Y-112475000D01*
X132460714Y-112510714D01*
X132496429Y-112582143D01*
X132496429Y-112653571D01*
X132460714Y-112760714D01*
X132032143Y-113189286D01*
X132496429Y-113189286D01*
X134289286Y-116232142D02*
X134289286Y-116160714D01*
X134325000Y-116089285D01*
X134360714Y-116053571D01*
X134432143Y-116017857D01*
X134575000Y-115982142D01*
X134753571Y-115982142D01*
X134896429Y-116017857D01*
X134967857Y-116053571D01*
X135003571Y-116089285D01*
X135039286Y-116160714D01*
X135039286Y-116232142D01*
X135003571Y-116303571D01*
X134967857Y-116339285D01*
X134896429Y-116375000D01*
X134753571Y-116410714D01*
X134575000Y-116410714D01*
X134432143Y-116375000D01*
X134360714Y-116339285D01*
X134325000Y-116303571D01*
X134289286Y-116232142D01*
X134967857Y-115660714D02*
X135003571Y-115624999D01*
X135039286Y-115660714D01*
X135003571Y-115696428D01*
X134967857Y-115660714D01*
X135039286Y-115660714D01*
X135039286Y-114910713D02*
X135039286Y-115339285D01*
X135039286Y-115124999D02*
X134289286Y-115124999D01*
X134396429Y-115196428D01*
X134467857Y-115267856D01*
X134503571Y-115339285D01*
X134539286Y-114267856D02*
X135039286Y-114267856D01*
X134539286Y-114589285D02*
X134932143Y-114589285D01*
X135003571Y-114553570D01*
X135039286Y-114482142D01*
X135039286Y-114374999D01*
X135003571Y-114303570D01*
X134967857Y-114267856D01*
X134646429Y-113660714D02*
X134646429Y-113910714D01*
X135039286Y-113910714D02*
X134289286Y-113910714D01*
X134289286Y-113553571D01*
X116217857Y-113067857D02*
X116182143Y-113103571D01*
X116075000Y-113139286D01*
X116003571Y-113139286D01*
X115896428Y-113103571D01*
X115825000Y-113032143D01*
X115789285Y-112960714D01*
X115753571Y-112817857D01*
X115753571Y-112710714D01*
X115789285Y-112567857D01*
X115825000Y-112496429D01*
X115896428Y-112425000D01*
X116003571Y-112389286D01*
X116075000Y-112389286D01*
X116182143Y-112425000D01*
X116217857Y-112460714D01*
X116503571Y-112460714D02*
X116539285Y-112425000D01*
X116610714Y-112389286D01*
X116789285Y-112389286D01*
X116860714Y-112425000D01*
X116896428Y-112460714D01*
X116932143Y-112532143D01*
X116932143Y-112603571D01*
X116896428Y-112710714D01*
X116467857Y-113139286D01*
X116932143Y-113139286D01*
X117217857Y-112460714D02*
X117253571Y-112425000D01*
X117325000Y-112389286D01*
X117503571Y-112389286D01*
X117575000Y-112425000D01*
X117610714Y-112460714D01*
X117646429Y-112532143D01*
X117646429Y-112603571D01*
X117610714Y-112710714D01*
X117182143Y-113139286D01*
X117646429Y-113139286D01*
X116067858Y-117789286D02*
X116139286Y-117789286D01*
X116210715Y-117825000D01*
X116246429Y-117860714D01*
X116282143Y-117932143D01*
X116317858Y-118075000D01*
X116317858Y-118253571D01*
X116282143Y-118396429D01*
X116246429Y-118467857D01*
X116210715Y-118503571D01*
X116139286Y-118539286D01*
X116067858Y-118539286D01*
X115996429Y-118503571D01*
X115960715Y-118467857D01*
X115925000Y-118396429D01*
X115889286Y-118253571D01*
X115889286Y-118075000D01*
X115925000Y-117932143D01*
X115960715Y-117860714D01*
X115996429Y-117825000D01*
X116067858Y-117789286D01*
X116639286Y-118467857D02*
X116675001Y-118503571D01*
X116639286Y-118539286D01*
X116603572Y-118503571D01*
X116639286Y-118467857D01*
X116639286Y-118539286D01*
X117389287Y-118539286D02*
X116960715Y-118539286D01*
X117175001Y-118539286D02*
X117175001Y-117789286D01*
X117103572Y-117896429D01*
X117032144Y-117967857D01*
X116960715Y-118003571D01*
X118032144Y-118039286D02*
X118032144Y-118539286D01*
X117710715Y-118039286D02*
X117710715Y-118432143D01*
X117746430Y-118503571D01*
X117817858Y-118539286D01*
X117925001Y-118539286D01*
X117996430Y-118503571D01*
X118032144Y-118467857D01*
X118639286Y-118146429D02*
X118389286Y-118146429D01*
X118389286Y-118539286D02*
X118389286Y-117789286D01*
X118746429Y-117789286D01*
X104517857Y-124982143D02*
X104553571Y-125017857D01*
X104589286Y-125125000D01*
X104589286Y-125196429D01*
X104553571Y-125303572D01*
X104482143Y-125375000D01*
X104410714Y-125410715D01*
X104267857Y-125446429D01*
X104160714Y-125446429D01*
X104017857Y-125410715D01*
X103946429Y-125375000D01*
X103875000Y-125303572D01*
X103839286Y-125196429D01*
X103839286Y-125125000D01*
X103875000Y-125017857D01*
X103910714Y-124982143D01*
X103910714Y-124696429D02*
X103875000Y-124660715D01*
X103839286Y-124589286D01*
X103839286Y-124410715D01*
X103875000Y-124339286D01*
X103910714Y-124303572D01*
X103982143Y-124267857D01*
X104053571Y-124267857D01*
X104160714Y-124303572D01*
X104589286Y-124732143D01*
X104589286Y-124267857D01*
X103839286Y-124017857D02*
X103839286Y-123553571D01*
X104125000Y-123803571D01*
X104125000Y-123696429D01*
X104160714Y-123625000D01*
X104196429Y-123589286D01*
X104267857Y-123553571D01*
X104446429Y-123553571D01*
X104517857Y-123589286D01*
X104553571Y-123625000D01*
X104589286Y-123696429D01*
X104589286Y-123910714D01*
X104553571Y-123982143D01*
X104517857Y-124017857D01*
X105517858Y-127889286D02*
X105589286Y-127889286D01*
X105660715Y-127925000D01*
X105696429Y-127960714D01*
X105732143Y-128032143D01*
X105767858Y-128175000D01*
X105767858Y-128353571D01*
X105732143Y-128496429D01*
X105696429Y-128567857D01*
X105660715Y-128603571D01*
X105589286Y-128639286D01*
X105517858Y-128639286D01*
X105446429Y-128603571D01*
X105410715Y-128567857D01*
X105375000Y-128496429D01*
X105339286Y-128353571D01*
X105339286Y-128175000D01*
X105375000Y-128032143D01*
X105410715Y-127960714D01*
X105446429Y-127925000D01*
X105517858Y-127889286D01*
X106089286Y-128567857D02*
X106125001Y-128603571D01*
X106089286Y-128639286D01*
X106053572Y-128603571D01*
X106089286Y-128567857D01*
X106089286Y-128639286D01*
X106839287Y-128639286D02*
X106410715Y-128639286D01*
X106625001Y-128639286D02*
X106625001Y-127889286D01*
X106553572Y-127996429D01*
X106482144Y-128067857D01*
X106410715Y-128103571D01*
X107482144Y-128139286D02*
X107482144Y-128639286D01*
X107160715Y-128139286D02*
X107160715Y-128532143D01*
X107196430Y-128603571D01*
X107267858Y-128639286D01*
X107375001Y-128639286D01*
X107446430Y-128603571D01*
X107482144Y-128567857D01*
X108089286Y-128246429D02*
X107839286Y-128246429D01*
X107839286Y-128639286D02*
X107839286Y-127889286D01*
X108196429Y-127889286D01*
M02*
