G04 #@! TF.FileFunction,Paste,Top*
%FSLAX46Y46*%
G04 Gerber Fmt 4.6, Leading zero omitted, Abs format (unit mm)*
G04 Created by KiCad (PCBNEW 4.0.7-e2-6376~60~ubuntu17.10.1) date Wed Nov 22 12:07:43 2017*
%MOMM*%
%LPD*%
G01*
G04 APERTURE LIST*
%ADD10C,0.100000*%
%ADD11R,1.800000X1.070000*%
%ADD12R,0.360000X0.230000*%
%ADD13R,0.670000X1.000000*%
%ADD14R,1.000000X0.670000*%
%ADD15R,1.500000X0.970000*%
%ADD16R,0.970000X1.500000*%
%ADD17R,1.550000X0.600000*%
%ADD18R,0.650000X1.060000*%
G04 APERTURE END LIST*
D10*
D11*
X110200000Y-108200000D03*
X110200000Y-105190000D03*
X111600000Y-116900000D03*
X111600000Y-113890000D03*
D12*
X109500000Y-113500000D03*
X109500000Y-112900000D03*
D11*
X107800000Y-113000000D03*
X107800000Y-109990000D03*
D13*
X100285464Y-113800000D03*
X102035464Y-113800000D03*
X100285464Y-108704414D03*
X102035464Y-108704414D03*
X118450000Y-111200000D03*
X116700000Y-111200000D03*
D14*
X129100000Y-105250000D03*
X129100000Y-107000000D03*
D13*
X123550000Y-111200000D03*
X121800000Y-111200000D03*
D14*
X119900000Y-105200000D03*
X119900000Y-106950000D03*
D13*
X114350000Y-111200000D03*
X112600000Y-111200000D03*
D11*
X107800000Y-105190000D03*
X107800000Y-108200000D03*
D15*
X129400000Y-108500000D03*
X129400000Y-110410000D03*
X118315163Y-116968751D03*
X118315163Y-115058751D03*
X115815163Y-116968751D03*
X115815163Y-115058751D03*
D16*
X116690000Y-113100000D03*
X118600000Y-113100000D03*
D17*
X112600000Y-105695000D03*
X112600000Y-106965000D03*
X112600000Y-108235000D03*
X112600000Y-109505000D03*
X118000000Y-109505000D03*
X118000000Y-108235000D03*
X118000000Y-106965000D03*
X118000000Y-105695000D03*
X121800000Y-105695000D03*
X121800000Y-106965000D03*
X121800000Y-108235000D03*
X121800000Y-109505000D03*
X127200000Y-109505000D03*
X127200000Y-108235000D03*
X127200000Y-106965000D03*
X127200000Y-105695000D03*
D18*
X107550000Y-116900000D03*
X108500000Y-116900000D03*
X109450000Y-116900000D03*
X109450000Y-114700000D03*
X107550000Y-114700000D03*
M02*
