G04 #@! TF.FileFunction,Legend,Top*
%FSLAX46Y46*%
G04 Gerber Fmt 4.6, Leading zero omitted, Abs format (unit mm)*
G04 Created by KiCad (PCBNEW 4.0.7-e2-6376~60~ubuntu17.10.1) date Wed Nov 22 12:07:43 2017*
%MOMM*%
%LPD*%
G01*
G04 APERTURE LIST*
%ADD10C,0.100000*%
%ADD11C,0.120000*%
%ADD12C,0.150000*%
G04 APERTURE END LIST*
D10*
D11*
X109290000Y-107345000D02*
X109290000Y-106045000D01*
X111110000Y-107345000D02*
X111110000Y-106045000D01*
X110690000Y-116045000D02*
X110690000Y-114745000D01*
X112510000Y-116045000D02*
X112510000Y-114745000D01*
X106890000Y-112145000D02*
X106890000Y-110845000D01*
X108710000Y-112145000D02*
X108710000Y-110845000D01*
X100940464Y-113290000D02*
X101380464Y-113290000D01*
X100940464Y-114310000D02*
X101380464Y-114310000D01*
X100940464Y-108194414D02*
X101380464Y-108194414D01*
X100940464Y-109214414D02*
X101380464Y-109214414D01*
X117795000Y-111710000D02*
X117355000Y-111710000D01*
X117795000Y-110690000D02*
X117355000Y-110690000D01*
X129610000Y-105905000D02*
X129610000Y-106345000D01*
X128590000Y-105905000D02*
X128590000Y-106345000D01*
X122895000Y-111710000D02*
X122455000Y-111710000D01*
X122895000Y-110690000D02*
X122455000Y-110690000D01*
X120410000Y-105855000D02*
X120410000Y-106295000D01*
X119390000Y-105855000D02*
X119390000Y-106295000D01*
X113695000Y-111710000D02*
X113255000Y-111710000D01*
X113695000Y-110690000D02*
X113255000Y-110690000D01*
X127270000Y-117130000D02*
X129930000Y-117130000D01*
X127270000Y-114530000D02*
X127270000Y-117130000D01*
X129930000Y-114530000D02*
X129930000Y-117130000D01*
X127270000Y-114530000D02*
X129930000Y-114530000D01*
X127270000Y-113260000D02*
X127270000Y-111930000D01*
X127270000Y-111930000D02*
X128600000Y-111930000D01*
X106030000Y-104830000D02*
X103370000Y-104830000D01*
X106030000Y-112510000D02*
X106030000Y-104830000D01*
X103370000Y-112510000D02*
X103370000Y-104830000D01*
X106030000Y-112510000D02*
X103370000Y-112510000D01*
X106030000Y-113780000D02*
X106030000Y-115110000D01*
X106030000Y-115110000D02*
X104700000Y-115110000D01*
X119625163Y-121098751D02*
X119625163Y-118438751D01*
X114485163Y-121098751D02*
X119625163Y-121098751D01*
X114485163Y-118438751D02*
X119625163Y-118438751D01*
X114485163Y-121098751D02*
X114485163Y-118438751D01*
X113215163Y-121098751D02*
X111885163Y-121098751D01*
X111885163Y-121098751D02*
X111885163Y-119768751D01*
X99115464Y-104834414D02*
X96455464Y-104834414D01*
X99115464Y-112514414D02*
X99115464Y-104834414D01*
X96455464Y-112514414D02*
X96455464Y-104834414D01*
X99115464Y-112514414D02*
X96455464Y-112514414D01*
X99115464Y-113784414D02*
X99115464Y-115114414D01*
X99115464Y-115114414D02*
X97785464Y-115114414D01*
X108710000Y-106045000D02*
X108710000Y-107345000D01*
X106890000Y-106045000D02*
X106890000Y-107345000D01*
X130110000Y-109305000D02*
X130110000Y-109605000D01*
X128690000Y-109305000D02*
X128690000Y-109605000D01*
X117605163Y-116163751D02*
X117605163Y-115863751D01*
X119025163Y-116163751D02*
X119025163Y-115863751D01*
X115105163Y-116163751D02*
X115105163Y-115863751D01*
X116525163Y-116163751D02*
X116525163Y-115863751D01*
X117495000Y-112390000D02*
X117795000Y-112390000D01*
X117495000Y-113810000D02*
X117795000Y-113810000D01*
D12*
X113225000Y-105025000D02*
X113225000Y-105075000D01*
X117375000Y-105025000D02*
X117375000Y-105170000D01*
X117375000Y-110175000D02*
X117375000Y-110030000D01*
X113225000Y-110175000D02*
X113225000Y-110030000D01*
X113225000Y-105025000D02*
X117375000Y-105025000D01*
X113225000Y-110175000D02*
X117375000Y-110175000D01*
X113225000Y-105075000D02*
X111825000Y-105075000D01*
X122425000Y-105025000D02*
X122425000Y-105075000D01*
X126575000Y-105025000D02*
X126575000Y-105170000D01*
X126575000Y-110175000D02*
X126575000Y-110030000D01*
X122425000Y-110175000D02*
X122425000Y-110030000D01*
X122425000Y-105025000D02*
X126575000Y-105025000D01*
X122425000Y-110175000D02*
X126575000Y-110175000D01*
X122425000Y-105075000D02*
X121025000Y-105075000D01*
D11*
X110110000Y-116700000D02*
X110110000Y-114900000D01*
X106890000Y-114900000D02*
X106890000Y-117350000D01*
M02*
