M48
;DRILL file {KiCad 4.0.7-e2-6376~60~ubuntu17.10.1} date Mon Dec 18 15:30:37 2017
;FORMAT={2:4/ absolute / inch / suppress leading zeros}
FMAT,2
INCH,TZ
T1C0.031
T2C0.039
T3C0.126
%
G90
G05
M72
T1
X37913Y-45354
X37913Y-47362
X38898Y-45354
X38898Y-47362
X42028Y-44953
X42028Y-45953
X42028Y-46953
X42028Y-47953
X42028Y-48858
X42028Y-49843
X42098Y-41831
X42717Y-43406
X44587Y-55531
X44685Y-43406
X45028Y-44953
X45028Y-45953
X45028Y-46953
X45028Y-47953
X45098Y-41831
X45563Y-51358
X45571Y-52480
X45571Y-55531
X45583Y-53583
X46280Y-40768
X46280Y-43768
X46280Y-45000
X46280Y-45984
X46638Y-55059
X47343Y-40768
X47638Y-55059
X47736Y-44953
X47736Y-45953
X47736Y-46953
X47736Y-47953
X47736Y-48878
X47736Y-49862
X48563Y-51358
X48571Y-52480
X48583Y-53583
X48638Y-55059
X49311Y-40768
X50736Y-44953
X50736Y-45953
X50736Y-46953
X50736Y-47953
X51862Y-46988
X52067Y-45000
X52067Y-45984
X52689Y-42303
X52689Y-43484
X54862Y-46988
X55689Y-42303
X55689Y-43484
T2
X35846Y-45354
X35846Y-46354
X35846Y-47354
X41850Y-53091
X41850Y-55059
X51063Y-53091
X51063Y-55059
X57382Y-46988
X57382Y-47988
X57382Y-52819
X57382Y-53819
X57402Y-41280
X57402Y-42323
X57402Y-43323
X57402Y-44323
X57402Y-50591
X57402Y-51591
T3
X38583Y-39370
X38583Y-55118
X54331Y-39370
X54331Y-55118
T0
M30
